<?xml version="1.0" encoding="utf-8"?>
<svg width="302px" height="141.08276px" viewBox="0 0 302 141.08276" version="1.1" xmlns:xlink="http://www.w3.org/1999/xlink" xmlns="http://www.w3.org/2000/svg">
  <g id="Group-4" transform="translate(1.5 0)">
    <path d="M27.4345 61.478C27.4345 67.7332 27.4345 65.0524 27.4345 65.0524C27.4345 65.0524 0 79.8606 0 79.8606C0 79.8606 0 119.179 0 119.179L37.9862 138.583L76.5 119.179L76.5 79.8606L48.6976 64.7993L48.6976 61.478L48.6976 42.4827L27.4345 42.4827C27.4345 42.4827 27.4345 55.2228 27.4345 61.478Z" id="Vector-4" fill="#D3D3D3" fill-rule="evenodd" stroke="none" />
    <g id="Group-Copy-3">
      <path d="M27.4345 60.3068L27.4345 63.9999C27.4345 63.9999 1.14441e-05 78.9103 1.14441e-05 78.9103C1.14441e-05 78.9103 1.14441e-05 119.534 1.14441e-05 119.534L37.9862 139.583L76.5 119.534L76.5 78.9103L48.5 63.9999L48.5 60.5683" id="Vector-5" fill="none" fill-rule="evenodd" stroke="#8F8D98" stroke-width="3" />
      <path d="M27.5 18.5826L27.5 64.8749" id="Vector-6" fill="none" fill-rule="evenodd" stroke="#8F8D98" stroke-width="3" stroke-linejoin="round" />
      <path d="M48.5 18.9897L48.5 64.6968L48.5 56.1465" id="Vector-7" fill="none" fill-rule="evenodd" stroke="#8F8D98" stroke-width="3" />
      <path d="M51 81.5826L61 88L38 99L15 88L26 81.5826L38 89L51 81.5826Z" id="Vector-8" fill="#FFFFFF" fill-rule="evenodd" stroke="none" />
      <path d="M38 124C38 124 61 111 61 111C61 111 61 88 61 88L38 99L38 124Z" id="Vector-9" fill="#6442D4" fill-rule="evenodd" stroke="none" />
      <path d="M38 124C38 124 15 111 15 111C15 111 15 88 15 88L38 99L38 124Z" id="Vector-10" fill="#4916CD" fill-rule="evenodd" stroke="none" />
      <path d="M18.999 0L57.001 0Q57.1237 0 57.2463 0.00602151Q57.3689 0.012043 57.491 0.0240715Q57.6131 0.0361001 57.7345 0.0541066Q57.8559 0.0721132 57.9763 0.0960544Q58.0966 0.119996 58.2157 0.149814Q58.3347 0.179632 58.4521 0.215255Q58.5696 0.250879 58.6851 0.292221Q58.8006 0.333564 58.914 0.380526Q59.0274 0.427489 59.1383 0.479957Q59.2493 0.532426 59.3575 0.590276Q59.4657 0.648125 59.571 0.711215Q59.6763 0.774305 59.7783 0.842483Q59.8803 0.910662 59.9789 0.983765Q60.0775 1.05687 60.1723 1.13472Q60.2672 1.21257 60.3581 1.29499Q60.449 1.3774 60.5358 1.46417Q60.6226 1.55095 60.705 1.64188Q60.7874 1.73281 60.8653 1.82767Q60.9431 1.92253 61.0162 2.0211Q61.0893 2.11967 61.1575 2.2217Q61.2257 2.32374 61.2888 2.429Q61.3519 2.53426 61.4097 2.64249Q61.4676 2.75072 61.52 2.86165Q61.5725 2.97259 61.6195 3.08597Q61.6664 3.19934 61.7078 3.31489Q61.7491 3.43043 61.7847 3.54787Q61.8204 3.6653 61.8502 3.78434Q61.88 3.90338 61.9039 4.02374Q61.9279 4.1441 61.9459 4.26549Q61.9639 4.38688 61.9759 4.50901Q61.988 4.63114 61.994 4.75371Q62 4.87628 62 4.999L62 14.001Q62 14.1237 61.994 14.2463Q61.988 14.3689 61.9759 14.491Q61.9639 14.6131 61.9459 14.7345Q61.9279 14.8559 61.9039 14.9763Q61.88 15.0966 61.8502 15.2157Q61.8204 15.3347 61.7847 15.4521Q61.7491 15.5696 61.7078 15.6851Q61.6664 15.8007 61.6195 15.914Q61.5725 16.0274 61.52 16.1383Q61.4676 16.2493 61.4097 16.3575Q61.3519 16.4657 61.2888 16.571Q61.2257 16.6763 61.1575 16.7783Q61.0893 16.8803 61.0162 16.9789Q60.9431 17.0775 60.8653 17.1723Q60.7874 17.2672 60.705 17.3581Q60.6226 17.449 60.5358 17.5358Q60.449 17.6226 60.3581 17.705Q60.2672 17.7874 60.1723 17.8653Q60.0775 17.9431 59.9789 18.0162Q59.8803 18.0893 59.7783 18.1575Q59.6763 18.2257 59.571 18.2888Q59.4657 18.3519 59.3575 18.4097Q59.2493 18.4676 59.1383 18.52Q59.0274 18.5725 58.914 18.6195Q58.8006 18.6664 58.6851 18.7078Q58.5696 18.7491 58.4521 18.7847Q58.3347 18.8204 58.2157 18.8502Q58.0966 18.88 57.9762 18.9039Q57.8559 18.9279 57.7345 18.9459Q57.6131 18.9639 57.491 18.9759Q57.3689 18.988 57.2463 18.994Q57.1237 19 57.001 19L18.999 19Q18.8763 19 18.7537 18.994Q18.6311 18.988 18.509 18.9759Q18.3869 18.9639 18.2655 18.9459Q18.1441 18.9279 18.0237 18.9039Q17.9034 18.88 17.7843 18.8502Q17.6653 18.8204 17.5479 18.7847Q17.4304 18.7491 17.3149 18.7078Q17.1993 18.6664 17.086 18.6195Q16.9726 18.5725 16.8617 18.52Q16.7507 18.4676 16.6425 18.4097Q16.5343 18.3519 16.429 18.2888Q16.3237 18.2257 16.2217 18.1575Q16.1197 18.0893 16.0211 18.0162Q15.9225 17.9431 15.8277 17.8653Q15.7328 17.7874 15.6419 17.705Q15.5509 17.6226 15.4642 17.5358Q15.3774 17.449 15.295 17.3581Q15.2126 17.2672 15.1347 17.1723Q15.0569 17.0775 14.9838 16.9789Q14.9107 16.8803 14.8425 16.7783Q14.7743 16.6763 14.7112 16.571Q14.6481 16.4657 14.5903 16.3575Q14.5324 16.2493 14.48 16.1383Q14.4275 16.0274 14.3805 15.914Q14.3336 15.8007 14.2922 15.6851Q14.2509 15.5696 14.2153 15.4521Q14.1796 15.3347 14.1498 15.2157Q14.12 15.0966 14.0961 14.9763Q14.0721 14.8559 14.0541 14.7345Q14.0361 14.6131 14.0241 14.491Q14.012 14.3689 14.006 14.2463Q14 14.1237 14 14.001L14 4.999Q14 4.87628 14.006 4.75371Q14.012 4.63114 14.0241 4.50901Q14.0361 4.38688 14.0541 4.26549Q14.0721 4.1441 14.0961 4.02374Q14.12 3.90338 14.1498 3.78434Q14.1796 3.6653 14.2153 3.54787Q14.2509 3.43043 14.2922 3.31489Q14.3336 3.19934 14.3805 3.08597Q14.4275 2.97259 14.48 2.86165Q14.5324 2.75072 14.5903 2.64249Q14.6481 2.53426 14.7112 2.429Q14.7743 2.32374 14.8425 2.2217Q14.9107 2.11967 14.9838 2.0211Q15.0569 1.92253 15.1347 1.82767Q15.2126 1.73281 15.295 1.64188Q15.3774 1.55095 15.4642 1.46417Q15.5509 1.3774 15.6419 1.29499Q15.7328 1.21257 15.8277 1.13472Q15.9225 1.05687 16.0211 0.983765Q16.1197 0.910662 16.2217 0.842483Q16.3237 0.774305 16.429 0.711215Q16.5343 0.648125 16.6425 0.590276Q16.7507 0.532426 16.8617 0.479957Q16.9726 0.427489 17.086 0.380526Q17.1993 0.333564 17.3149 0.292221Q17.4304 0.250879 17.5479 0.215255Q17.6653 0.179632 17.7843 0.149814Q17.9034 0.119996 18.0237 0.0960544Q18.1441 0.0721132 18.2655 0.0541066Q18.3869 0.0361001 18.509 0.0240715Q18.6311 0.012043 18.7537 0.00602151Q18.8763 0 18.999 0Z" id="Rectangle-2" fill="#846CD4" fill-rule="evenodd" stroke="none" />
    </g>
    <path d="M15 88.0828C15 88.0828 38 74.5828 38 74.5828L61 88.0828L38 99.0828C38 99.0828 15 88.0828 15 88.0828Z" id="Vector-28" fill="#846CD4" fill-rule="evenodd" stroke="none" />
    <g id="Chem" fill="#4916CD" transform="translate(97.5 16.382812)">
      <path d="M26.3693 23.767L33.8352 23.767Q33.358 19.7273 31.2869 16.8892Q29.2159 14.0511 25.9688 12.5597Q22.7216 11.0682 18.6818 11.0682Q14.0795 11.0682 10.3977 13.1733Q6.71591 15.2784 4.56818 19.2841Q2.42045 23.2898 2.42045 29Q2.42045 34.6932 4.54261 38.6989Q6.66477 42.7045 10.3381 44.8182Q14.0114 46.9318 18.6818 46.9318Q23.1648 46.9318 26.4119 45.1761Q29.6591 43.4205 31.5511 40.5909Q33.4432 37.7614 33.8352 34.5568L26.3693 34.5227Q25.8409 37.3182 23.7955 38.8608Q21.75 40.4034 18.8011 40.4034Q14.8295 40.4034 12.3665 37.4972Q9.90341 34.5909 9.90341 29Q9.90341 23.5455 12.3494 20.571Q14.7955 17.5966 18.8523 17.5966Q21.8864 17.5966 23.9148 19.2415Q25.9432 20.8864 26.3693 23.767ZM57.4614 46.4545L57.4614 31.3182Q57.4784 28.7784 58.8847 27.3722Q60.2909 25.9659 62.5068 25.9659Q64.7227 25.9659 65.9585 27.3125Q67.1943 28.6591 67.1773 31.0795L67.1773 46.4545L74.4386 46.4545L74.4386 29.7841Q74.4557 25.1818 71.967 22.5568Q69.4784 19.9318 65.3875 19.9318Q62.4045 19.9318 60.4358 21.2528Q58.467 22.5739 57.5636 24.892L57.2568 24.892L57.2568 11.5455L50.2 11.5455L50.2 46.4545L57.4614 46.4545ZM103.298 46.9659Q99.275 46.9659 96.3602 45.321Q93.4455 43.6761 91.8773 40.6506Q90.3091 37.625 90.3091 33.483Q90.3091 29.4432 91.8773 26.392Q93.4455 23.3409 96.3006 21.6364Q99.1557 19.9318 103.008 19.9318Q106.468 19.9318 109.255 21.3977Q112.042 22.8636 113.678 25.821Q115.315 28.7784 115.315 33.2273L115.315 35.2216L97.4852 35.2216L97.4852 35.2386Q97.4852 38.1705 99.0875 39.858Q100.69 41.5455 103.417 41.5455Q105.241 41.5455 106.57 40.7784Q107.9 40.0114 108.445 38.5114L115.161 38.9545Q114.394 42.6023 111.275 44.7841Q108.156 46.9659 103.298 46.9659ZM131.253 20.2727L131.253 46.4545L138.515 46.4545L138.515 30.7386Q138.515 28.5568 139.742 27.2358Q140.969 25.9148 142.776 25.9148Q144.566 25.9148 145.665 27.0568Q146.765 28.1989 146.765 30.125L146.765 46.4545L153.805 46.4545L153.805 30.4659Q153.805 28.4375 154.913 27.1761Q156.02 25.9148 157.998 25.9148Q159.736 25.9148 160.895 27.0057Q162.055 28.0966 162.055 30.2784L162.055 46.4545L169.299 46.4545L169.299 28.8466Q169.299 24.5852 167.006 22.2585Q164.714 19.9318 161.049 19.9318Q158.168 19.9318 156.063 21.2869Q153.958 22.642 153.157 24.892L152.884 24.892Q152.253 22.608 150.361 21.2699Q148.469 19.9318 145.776 19.9318Q143.134 19.9318 141.216 21.2528Q139.299 22.5739 138.481 24.892L138.174 24.892L138.174 20.2727L131.253 20.2727ZM97.4852 30.7216L108.48 30.7216Q108.463 28.3864 106.98 26.8693Q105.497 25.3523 103.127 25.3523Q100.707 25.3523 99.1557 26.9205Q97.6046 28.4886 97.4852 30.7216Z" />
    </g>
    <g id="C" fill="#4916CD" transform="translate(97.5 16.582764)">
      <path d="M33.8352 23.767L26.3693 23.767Q25.9432 20.8864 23.9148 19.2415Q21.8864 17.5966 18.8523 17.5966Q14.7955 17.5966 12.3494 20.571Q9.90341 23.5455 9.90341 29Q9.90341 34.5909 12.3665 37.4972Q14.8295 40.4034 18.8011 40.4034Q21.75 40.4034 23.7955 38.8608Q25.8409 37.3182 26.3693 34.5227L33.8352 34.5568Q33.4432 37.7614 31.5511 40.5909Q29.6591 43.4205 26.4119 45.1761Q23.1648 46.9318 18.6818 46.9318Q14.0114 46.9318 10.3381 44.8182Q6.66477 42.7045 4.54261 38.6989Q2.42045 34.6932 2.42045 29Q2.42045 23.2898 4.56818 19.2841Q6.71591 15.2784 10.3977 13.1733Q14.0795 11.0682 18.6818 11.0682Q22.7216 11.0682 25.9688 12.5597Q29.2159 14.0511 31.2869 16.8892Q33.358 19.7273 33.8352 23.767Z" />
    </g>
    <g id="NLP" fill="#4916CD" transform="translate(89.5 74.38281)">
      <path d="M38.6193 11.5455L38.6193 46.4545L32.2443 46.4545L17.0568 24.483L16.8011 24.483L16.8011 46.4545L9.42044 46.4545L9.42044 11.5455L15.8977 11.5455L30.9659 33.5L31.2727 33.5L31.2727 11.5455L38.6193 11.5455ZM81.7045 46.4545L81.7045 11.5455L89.0852 11.5455L89.0852 40.3693L104.051 40.3693L104.051 46.4545L81.7045 46.4545ZM145.943 11.5455L145.943 46.4545L153.324 46.4545L153.324 35.1364L159.528 35.1364Q163.551 35.1364 166.389 33.6449Q169.227 32.1534 170.727 29.5028Q172.227 26.8523 172.227 23.375Q172.227 19.8977 170.753 17.2301Q169.278 14.5625 166.483 13.054Q163.687 11.5455 159.716 11.5455L145.943 11.5455ZM158.335 29.2216L153.324 29.2216L153.324 17.5795L158.301 17.5795Q161.506 17.5795 163.065 19.1733Q164.625 20.767 164.625 23.375Q164.625 25.9659 163.065 27.5937Q161.506 29.2216 158.335 29.2216Z" />
    </g>
  </g>
</svg>