<?xml version="1.0" encoding="UTF-8" standalone="no"?>
<svg
   width="722px"
   height="670px"
   viewBox="0 0 722 670"
   version="1.1"
   id="svg42"
   sodipodi:docname="chemnlp.svg"
   inkscape:version="1.1.2 (b8e25be8, 2022-02-05)"
   inkscape:export-filename="/Users/MMP/Documents/Projects/chemnlp/assets/logo/chemnlp.png"
   inkscape:export-xdpi="196"
   inkscape:export-ydpi="196"
   xmlns:inkscape="http://www.inkscape.org/namespaces/inkscape"
   xmlns:sodipodi="http://sodipodi.sourceforge.net/DTD/sodipodi-0.dtd"
   xmlns:xlink="http://www.w3.org/1999/xlink"
   xmlns="http://www.w3.org/2000/svg"
   xmlns:svg="http://www.w3.org/2000/svg">
  <sodipodi:namedview
     id="namedview44"
     pagecolor="#ffffff"
     bordercolor="#666666"
     borderopacity="1.0"
     inkscape:pageshadow="2"
     inkscape:pageopacity="0.0"
     inkscape:pagecheckerboard="0"
     showgrid="false"
     inkscape:zoom="1.0731343"
     inkscape:cx="388.58136"
     inkscape:cy="342.4548"
     inkscape:window-width="1383"
     inkscape:window-height="969"
     inkscape:window-x="0"
     inkscape:window-y="38"
     inkscape:window-maximized="0"
     inkscape:current-layer="Artboard-Copy-10" />
  <defs
     id="defs13">
    <rect
       width="722"
       height="670"
       id="artboard_1" />
    <clipPath
       id="clip_1">
      <use
         xlink:href="#artboard_1"
         clip-rule="evenodd"
         id="use10" />
    </clipPath>
  </defs>
  <g
     id="Artboard-Copy-10"
     clip-path="url(#clip_1)">
    <g
       id="Group-5"
       transform="translate(189.5 266.99976)"
       artboard="9a8165f4-dcd4-4d5c-b398-c3c4b5dfd932">
      <g
         id="Group-4">
        <path
           d="M27.4345 42.8957C27.4345 49.1509 27.4345 46.4701 27.4345 46.4701C27.4345 46.4701 0 61.2783 0 61.2783C0 61.2783 0 100.597 0 100.597L37.9862 120L76.5 100.597L76.5 61.2783L48.6976 46.217L48.6976 42.8957L48.6976 23.9004L27.4345 23.9004C27.4345 23.9004 27.4345 36.6405 27.4345 42.8957Z"
           id="Vector-4"
           fill="#D3D3D3"
           fill-rule="evenodd"
           stroke="none" />
        <g
           id="Group-Copy-3">
          <path
             d="M27.4345 41.7244L27.4345 45.4175C27.4345 45.4175 1.13994e-05 60.3279 1.13994e-05 60.3279C1.13994e-05 60.3279 1.13994e-05 100.952 1.13994e-05 100.952L37.9862 121L76.5 100.952L76.5 60.3279L48.5 45.4175L48.5 41.9859"
             id="Vector-5"
             fill="none"
             fill-rule="evenodd"
             stroke="#8F8D98"
             stroke-width="3" />
          <path
             d="M27.5 0L27.5 46.2923"
             id="Vector-6"
             fill="none"
             fill-rule="evenodd"
             stroke="#8F8D98"
             stroke-width="3"
             stroke-linejoin="round" />
          <path
             d="M48.5 0.407227L48.5 46.1142L48.5 37.564"
             id="Vector-7"
             fill="none"
             fill-rule="evenodd"
             stroke="#8F8D98"
             stroke-width="3" />
          <path
             d="M51 63L61 69.4174L38 80.4174L15 69.4174L26 63L38 70.4174L51 63Z"
             id="Vector-8"
             fill="#FFFFFF"
             fill-rule="evenodd"
             stroke="none" />
          <path
             d="M38 105.417C38 105.417 61 92.4175 61 92.4175C61 92.4175 61 69.4175 61 69.4175L38 80.4175L38 105.417Z"
             id="Vector-9"
             fill="#6442D4"
             fill-rule="evenodd"
             stroke="none" />
          <path
             d="M38 105.417C38 105.417 15 92.4175 15 92.4175C15 92.4175 15 69.4175 15 69.4175L38 80.4175L38 105.417Z"
             id="Vector-10"
             fill="#4916CD"
             fill-rule="evenodd"
             stroke="none" />
        </g>
        <path
           d="M15 69.5002C15 69.5002 38 56.0002 38 56.0002L61 69.5002L38 80.5002C38 80.5002 15 69.5002 15 69.5002Z"
           id="Vector-28"
           fill="#846CD4"
           fill-rule="evenodd"
           stroke="none" />
      </g>
      <g
         id="ChemNLP"
         transform="translate(97.5 31.5)">
        <g
           id="C"
           fill="#4916CD">
          <path
             d="M33.3239 23.3239L26.9489 23.3239Q26.4034 20.1875 24.1193 18.4659Q21.8352 16.7443 18.6477 16.7443Q14.3693 16.7443 11.642 19.9148Q8.91477 23.0852 8.91477 29Q8.91477 35 11.6506 38.1278Q14.3864 41.2557 18.6307 41.2557Q21.767 41.2557 24.0597 39.5938Q26.3523 37.9318 26.9489 34.8636L33.3239 34.8977Q32.8466 38.2386 30.9205 40.9659Q28.9943 43.6932 25.8494 45.3125Q22.7045 46.9318 18.5455 46.9318Q13.9432 46.9318 10.3295 44.7926Q6.71591 42.6534 4.63636 38.6392Q2.55682 34.625 2.55682 29Q2.55682 23.358 4.65341 19.3437Q6.75 15.3295 10.3722 13.1989Q13.9943 11.0682 18.5455 11.0682Q22.4148 11.0682 25.5597 12.517Q28.7045 13.9659 30.75 16.7017Q32.7955 19.4375 33.3239 23.3239Z"
             id="path27" />
        </g>
        <g
           id="hem"
           fill="#4916CD">
          <path
             d="M50.3977 30.7045L50.3977 46.4545L46.375 46.4545L46.375 11.5455L50.3977 11.5455L50.3977 24.3636L50.7386 24.3636Q51.6591 22.3352 53.5085 21.1335Q55.358 19.9318 58.4432 19.9318Q62.4659 19.9318 64.9205 22.3523Q67.375 24.7727 67.375 29.8182L67.375 46.4545L63.3523 46.4545L63.3523 30.0909Q63.3523 26.9716 61.7415 25.2585Q60.1307 23.5455 57.2841 23.5455Q54.3011 23.5455 52.3494 25.4119Q50.3977 27.2784 50.3977 30.7045ZM92.7159 47Q88.9318 47 86.196 45.321Q83.4602 43.642 81.9858 40.6165Q80.5114 37.5909 80.5114 33.5682Q80.5114 29.5455 81.9858 26.4687Q83.4602 23.392 86.1108 21.6619Q88.7614 19.9318 92.3068 19.9318Q94.3523 19.9318 96.3466 20.6136Q98.3409 21.2955 99.9773 22.821Q101.614 24.3466 102.585 26.8523Q103.557 29.358 103.557 33.0227L103.557 34.7273L84.5511 34.7273Q84.6875 38.9205 86.929 41.1534Q89.1704 43.3864 92.7159 43.3864Q95.0852 43.3864 96.7898 42.3636Q98.4943 41.3409 99.2614 39.2955L103.148 40.3864Q102.227 43.3523 99.4659 45.1761Q96.7045 47 92.7159 47ZM116.693 20.2727L116.693 46.4545L120.716 46.4545L120.716 30.0909Q120.716 28.1648 121.543 26.6903Q122.369 25.2159 123.724 24.3807Q125.08 23.5455 126.648 23.5455Q128.932 23.5455 130.381 24.9176Q131.83 26.2898 131.83 28.5227L131.83 46.4545L135.92 46.4545L135.92 29.4091Q135.92 26.8693 137.438 25.2074Q138.955 23.5455 141.716 23.5455Q143.864 23.5455 145.449 24.7898Q147.034 26.0341 147.034 28.9318L147.034 46.4545L151.057 46.4545L151.057 28.9318Q151.057 24.3125 148.824 22.1222Q146.591 19.9318 143.08 19.9318Q140.267 19.9318 138.256 21.1335Q136.244 22.3352 135.239 24.3636L134.966 24.3636Q133.994 22.267 132.264 21.0994Q130.534 19.9318 127.943 19.9318Q125.386 19.9318 123.563 21.0994Q121.739 22.267 120.92 24.3636L120.58 24.3636L120.58 20.2727L116.693 20.2727ZM84.5511 31.25L99.4659 31.25Q99.4659 27.9261 97.5227 25.7358Q95.5795 23.5455 92.3068 23.5455Q90.0057 23.5455 88.3182 24.6193Q86.6307 25.6932 85.6591 27.4574Q84.6875 29.2216 84.5511 31.25Z"
             id="path30" />
        </g>
        <g
           id="N"
           fill="#4916CD">
          <path
             d="M193.869 11.5455L193.869 46.4545L188.244 46.4545L171.795 22.6761L171.506 22.6761L171.506 46.4545L165.182 46.4545L165.182 11.5455L170.841 11.5455L187.273 35.3409L187.58 35.3409L187.58 11.5455L193.869 11.5455Z"
             id="path33" />
        </g>
        <g
           id="LP"
           fill="#4916CD">
          <path
             d="M208.523 11.5455L208.523 46.4545L228.977 46.4545L228.977 42.7045L212.75 42.7045L212.75 11.5455L208.523 11.5455ZM242.523 11.5455L242.523 46.4545L246.75 46.4545L246.75 33.7045L254.386 33.7045Q258.46 33.7045 261.068 32.2131Q263.676 30.7216 264.929 28.1989Q266.182 25.6761 266.182 22.5909Q266.182 19.5057 264.92 17Q263.659 14.4943 261.043 13.0199Q258.426 11.5455 254.318 11.5455L242.523 11.5455ZM254.25 29.9545L246.75 29.9545L246.75 15.2955L254.182 15.2955Q258.443 15.2955 260.233 17.3665Q262.023 19.4375 262.023 22.5909Q262.023 25.7273 260.241 27.8409Q258.46 29.9545 254.25 29.9545Z"
             id="path36" />
        </g>
      </g>
    </g>
  </g>
</svg>
