<?xml version="1.0" encoding="utf-8"?>
<svg width="302px" height="141.08276px" viewBox="0 0 302 141.08276" version="1.1" xmlns:xlink="http://www.w3.org/1999/xlink" xmlns="http://www.w3.org/2000/svg">
  <g id="Group-4" transform="translate(1.5 0)">
    <path d="M27.4345 61.4782C27.4345 67.7334 27.4345 65.0526 27.4345 65.0526C27.4345 65.0526 0 79.8608 0 79.8608C0 79.8608 0 119.179 0 119.179L37.9862 138.583L76.5 119.179L76.5 79.8608L48.6976 64.7995L48.6976 61.4782L48.6976 42.4829L27.4345 42.4829C27.4345 42.4829 27.4345 55.2231 27.4345 61.4782Z" id="Vector-4" fill="#D3D3D3" fill-rule="evenodd" stroke="none" />
    <g id="Group-Copy-3">
      <path d="M27.4345 60.3068L27.4345 63.9999C27.4345 63.9999 1.14441e-05 78.9103 1.14441e-05 78.9103C1.14441e-05 78.9103 1.14441e-05 119.534 1.14441e-05 119.534L37.9862 139.583L76.5 119.534L76.5 78.9103L48.5 63.9999L48.5 60.5683" id="Vector-5" fill="none" fill-rule="evenodd" stroke="#8F8D98" stroke-width="3" />
      <path d="M27.5 18.5826L27.5 64.8749" id="Vector-6" fill="none" fill-rule="evenodd" stroke="#8F8D98" stroke-width="3" stroke-linejoin="round" />
      <path d="M48.5 18.9897L48.5 64.6968L48.5 56.1465" id="Vector-7" fill="none" fill-rule="evenodd" stroke="#8F8D98" stroke-width="3" />
      <path d="M51 81.5826L61 88L38 99L15 88L26 81.5826L38 89L51 81.5826Z" id="Vector-8" fill="#FFFFFF" fill-rule="evenodd" stroke="none" />
      <path d="M38 124C38 124 61 111 61 111C61 111 61 88 61 88L38 99L38 124Z" id="Vector-9" fill="#6442D4" fill-rule="evenodd" stroke="none" />
      <path d="M38 124C38 124 15 111 15 111C15 111 15 88 15 88L38 99L38 124Z" id="Vector-10" fill="#4916CD" fill-rule="evenodd" stroke="none" />
      <path d="M18.999 0L57.001 0Q57.1237 0 57.2463 0.00602151Q57.3689 0.012043 57.491 0.0240715Q57.6131 0.0361001 57.7345 0.0541066Q57.8559 0.0721132 57.9763 0.0960544Q58.0966 0.119996 58.2157 0.149814Q58.3347 0.179632 58.4521 0.215255Q58.5696 0.250879 58.6851 0.292221Q58.8006 0.333564 58.914 0.380526Q59.0274 0.427489 59.1383 0.479957Q59.2493 0.532426 59.3575 0.590276Q59.4657 0.648125 59.571 0.711215Q59.6763 0.774305 59.7783 0.842483Q59.8803 0.910662 59.9789 0.983765Q60.0775 1.05687 60.1723 1.13472Q60.2672 1.21257 60.3581 1.29499Q60.449 1.3774 60.5358 1.46417Q60.6226 1.55095 60.705 1.64188Q60.7874 1.73281 60.8653 1.82767Q60.9431 1.92253 61.0162 2.0211Q61.0893 2.11967 61.1575 2.2217Q61.2257 2.32374 61.2888 2.429Q61.3519 2.53426 61.4097 2.64249Q61.4676 2.75072 61.52 2.86165Q61.5725 2.97259 61.6195 3.08597Q61.6664 3.19934 61.7078 3.31489Q61.7491 3.43043 61.7847 3.54787Q61.8204 3.6653 61.8502 3.78434Q61.88 3.90338 61.9039 4.02374Q61.9279 4.1441 61.9459 4.26549Q61.9639 4.38688 61.9759 4.50901Q61.988 4.63114 61.994 4.75371Q62 4.87628 62 4.999L62 14.001Q62 14.1237 61.994 14.2463Q61.988 14.3689 61.9759 14.491Q61.9639 14.6131 61.9459 14.7345Q61.9279 14.8559 61.9039 14.9763Q61.88 15.0966 61.8502 15.2157Q61.8204 15.3347 61.7847 15.4521Q61.7491 15.5696 61.7078 15.6851Q61.6664 15.8007 61.6195 15.914Q61.5725 16.0274 61.52 16.1383Q61.4676 16.2493 61.4097 16.3575Q61.3519 16.4657 61.2888 16.571Q61.2257 16.6763 61.1575 16.7783Q61.0893 16.8803 61.0162 16.9789Q60.9431 17.0775 60.8653 17.1723Q60.7874 17.2672 60.705 17.3581Q60.6226 17.449 60.5358 17.5358Q60.449 17.6226 60.3581 17.705Q60.2672 17.7874 60.1723 17.8653Q60.0775 17.9431 59.9789 18.0162Q59.8803 18.0893 59.7783 18.1575Q59.6763 18.2257 59.571 18.2888Q59.4657 18.3519 59.3575 18.4097Q59.2493 18.4676 59.1383 18.52Q59.0274 18.5725 58.914 18.6195Q58.8006 18.6664 58.6851 18.7078Q58.5696 18.7491 58.4521 18.7847Q58.3347 18.8204 58.2157 18.8502Q58.0966 18.88 57.9762 18.9039Q57.8559 18.9279 57.7345 18.9459Q57.6131 18.9639 57.491 18.9759Q57.3689 18.988 57.2463 18.994Q57.1237 19 57.001 19L18.999 19Q18.8763 19 18.7537 18.994Q18.6311 18.988 18.509 18.9759Q18.3869 18.9639 18.2655 18.9459Q18.1441 18.9279 18.0237 18.9039Q17.9034 18.88 17.7843 18.8502Q17.6653 18.8204 17.5479 18.7847Q17.4304 18.7491 17.3149 18.7078Q17.1993 18.6664 17.086 18.6195Q16.9726 18.5725 16.8617 18.52Q16.7507 18.4676 16.6425 18.4097Q16.5343 18.3519 16.429 18.2888Q16.3237 18.2257 16.2217 18.1575Q16.1197 18.0893 16.0211 18.0162Q15.9225 17.9431 15.8277 17.8653Q15.7328 17.7874 15.6419 17.705Q15.5509 17.6226 15.4642 17.5358Q15.3774 17.449 15.295 17.3581Q15.2126 17.2672 15.1347 17.1723Q15.0569 17.0775 14.9838 16.9789Q14.9107 16.8803 14.8425 16.7783Q14.7743 16.6763 14.7112 16.571Q14.6481 16.4657 14.5903 16.3575Q14.5324 16.2493 14.48 16.1383Q14.4275 16.0274 14.3805 15.914Q14.3336 15.8007 14.2922 15.6851Q14.2509 15.5696 14.2153 15.4521Q14.1796 15.3347 14.1498 15.2157Q14.12 15.0966 14.0961 14.9763Q14.0721 14.8559 14.0541 14.7345Q14.0361 14.6131 14.0241 14.491Q14.012 14.3689 14.006 14.2463Q14 14.1237 14 14.001L14 4.999Q14 4.87628 14.006 4.75371Q14.012 4.63114 14.0241 4.50901Q14.0361 4.38688 14.0541 4.26549Q14.0721 4.1441 14.0961 4.02374Q14.12 3.90338 14.1498 3.78434Q14.1796 3.6653 14.2153 3.54787Q14.2509 3.43043 14.2922 3.31489Q14.3336 3.19934 14.3805 3.08597Q14.4275 2.97259 14.48 2.86165Q14.5324 2.75072 14.5903 2.64249Q14.6481 2.53426 14.7112 2.429Q14.7743 2.32374 14.8425 2.2217Q14.9107 2.11967 14.9838 2.0211Q15.0569 1.92253 15.1347 1.82767Q15.2126 1.73281 15.295 1.64188Q15.3774 1.55095 15.4642 1.46417Q15.5509 1.3774 15.6419 1.29499Q15.7328 1.21257 15.8277 1.13472Q15.9225 1.05687 16.0211 0.983765Q16.1197 0.910662 16.2217 0.842483Q16.3237 0.774305 16.429 0.711215Q16.5343 0.648125 16.6425 0.590276Q16.7507 0.532426 16.8617 0.479957Q16.9726 0.427489 17.086 0.380526Q17.1993 0.333564 17.3149 0.292221Q17.4304 0.250879 17.5479 0.215255Q17.6653 0.179632 17.7843 0.149814Q17.9034 0.119996 18.0237 0.0960544Q18.1441 0.0721132 18.2655 0.0541066Q18.3869 0.0361001 18.509 0.0240715Q18.6311 0.012043 18.7537 0.00602151Q18.8763 0 18.999 0Z" id="Rectangle-2" fill="#846CD4" fill-rule="evenodd" stroke="none" />
    </g>
    <path d="M15 88.0825C15 88.0825 38 74.5825 38 74.5825L61 88.0825L38 99.0825C38 99.0825 15 88.0825 15 88.0825Z" id="Vector-28" fill="#846CD4" fill-rule="evenodd" stroke="none" />
    <g id="Chem" fill="#4916CD" transform="translate(97.5 16.382812)">
      <path d="M28.0909 22.4545L32.3182 22.4545Q31.6705 18.875 29.6761 16.3267Q27.6818 13.7784 24.733 12.4233Q21.7841 11.0682 18.2727 11.0682Q13.8068 11.0682 10.3295 13.25Q6.85227 15.4318 4.85795 19.4545Q2.86364 23.4773 2.86364 29Q2.86364 34.5227 4.85795 38.5455Q6.85227 42.5682 10.3295 44.75Q13.8068 46.9318 18.2727 46.9318Q21.7841 46.9318 24.733 45.5767Q27.6818 44.2216 29.6761 41.6733Q31.6705 39.125 32.3182 35.5455L28.0909 35.5455Q27.5795 37.9659 26.1307 39.6193Q24.6818 41.2727 22.6364 42.125Q20.5909 42.9773 18.2727 42.9773Q15.1023 42.9773 12.5369 41.375Q9.97159 39.7727 8.46307 36.6534Q6.95455 33.5341 6.95455 29Q6.95455 24.4659 8.46307 21.3466Q9.97159 18.2273 12.5369 16.625Q15.1023 15.0227 18.2727 15.0227Q20.5909 15.0227 22.6364 15.875Q24.6818 16.7273 26.1307 18.3807Q27.5795 20.0341 28.0909 22.4545ZM53.8136 46.4545L53.8136 30.7045Q53.8136 27.2784 55.7653 25.4119Q57.717 23.5455 60.7 23.5455Q63.5466 23.5455 65.1574 25.2585Q66.7682 26.9716 66.7682 30.0909L66.7682 46.4545L70.7909 46.4545L70.7909 29.8182Q70.7909 24.7727 68.3364 22.3523Q65.8818 19.9318 61.8591 19.9318Q58.7739 19.9318 56.9244 21.1335Q55.075 22.3352 54.1545 24.3636L53.8136 24.3636L53.8136 11.5455L49.7909 11.5455L49.7909 46.4545L53.8136 46.4545ZM100.332 47Q96.5477 47 93.8119 45.321Q91.0761 43.642 89.6017 40.6165Q88.1273 37.5909 88.1273 33.5682Q88.1273 29.5455 89.6017 26.4687Q91.0761 23.392 93.7267 21.6619Q96.3773 19.9318 99.9227 19.9318Q101.968 19.9318 103.963 20.6136Q105.957 21.2955 107.593 22.821Q109.23 24.3466 110.201 26.8523Q111.173 29.358 111.173 33.0227L111.173 34.7273L92.167 34.7273Q92.3034 38.9205 94.5449 41.1534Q96.7864 43.3864 100.332 43.3864Q102.701 43.3864 104.406 42.3636Q106.11 41.3409 106.877 39.2955L110.764 40.3864Q109.843 43.3523 107.082 45.1761Q104.32 47 100.332 47ZM128.509 20.2727L128.509 46.4545L132.532 46.4545L132.532 30.0909Q132.532 28.1648 133.359 26.6903Q134.185 25.2159 135.54 24.3807Q136.895 23.5455 138.464 23.5455Q140.748 23.5455 142.197 24.9176Q143.645 26.2898 143.645 28.5227L143.645 46.4545L147.736 46.4545L147.736 29.4091Q147.736 26.8693 149.253 25.2074Q150.77 23.5455 153.532 23.5455Q155.68 23.5455 157.265 24.7898Q158.85 26.0341 158.85 28.9318L158.85 46.4545L162.873 46.4545L162.873 28.9318Q162.873 24.3125 160.64 22.1222Q158.407 19.9318 154.895 19.9318Q152.083 19.9318 150.072 21.1335Q148.06 22.3352 147.055 24.3636L146.782 24.3636Q145.81 22.267 144.08 21.0994Q142.35 19.9318 139.759 19.9318Q137.202 19.9318 135.378 21.0994Q133.555 22.267 132.736 24.3636L132.395 24.3636L132.395 20.2727L128.509 20.2727ZM92.167 31.25L107.082 31.25Q107.082 27.9261 105.139 25.7358Q103.195 23.5455 99.9227 23.5455Q97.6216 23.5455 95.9341 24.6193Q94.2466 25.6932 93.275 27.4574Q92.3034 29.2216 92.167 31.25Z" />
    </g>
    <g id="C" fill="#4916CD" transform="translate(97.5 16.58252)">
      <path d="M33.8352 23.767L26.3693 23.767Q25.9432 20.8864 23.9148 19.2415Q21.8864 17.5966 18.8523 17.5966Q14.7955 17.5966 12.3494 20.571Q9.90341 23.5455 9.90341 29Q9.90341 34.5909 12.3665 37.4972Q14.8295 40.4034 18.8011 40.4034Q21.75 40.4034 23.7955 38.8608Q25.8409 37.3182 26.3693 34.5227L33.8352 34.5568Q33.4432 37.7614 31.5511 40.5909Q29.6591 43.4205 26.4119 45.1761Q23.1648 46.9318 18.6818 46.9318Q14.0114 46.9318 10.3381 44.8182Q6.66477 42.7045 4.54261 38.6989Q2.42045 34.6932 2.42045 29Q2.42045 23.2898 4.56818 19.2841Q6.71591 15.2784 10.3977 13.1733Q14.0795 11.0682 18.6818 11.0682Q22.7216 11.0682 25.9688 12.5597Q29.2159 14.0511 31.2869 16.8892Q33.358 19.7273 33.8352 23.767Z" />
    </g>
    <g id="NLP" fill="#4916CD" transform="translate(89.5 74.38281)">
      <path d="M38.2954 11.5455L38.2954 46.4545L34.2045 46.4545L15.1818 19.0455L14.8409 19.0455L14.8409 46.4545L10.6136 46.4545L10.6136 11.5455L14.7045 11.5455L33.7954 39.0227L34.1363 39.0227L34.1363 11.5455L38.2954 11.5455ZM83.75 46.4545L83.75 11.5455L87.9772 11.5455L87.9772 42.7045L104.205 42.7045L104.205 46.4545L83.75 46.4545ZM147.75 11.5455L147.75 46.4545L151.977 46.4545L151.977 33.7045L159.614 33.7045Q163.687 33.7045 166.295 32.2131Q168.903 30.7216 170.156 28.1989Q171.409 25.6761 171.409 22.5909Q171.409 19.5057 170.148 17Q168.886 14.4943 166.27 13.0199Q163.653 11.5455 159.545 11.5455L147.75 11.5455ZM159.477 29.9545L151.977 29.9545L151.977 15.2955L159.409 15.2955Q163.67 15.2955 165.46 17.3665Q167.25 19.4375 167.25 22.5909Q167.25 25.7273 165.469 27.8409Q163.687 29.9545 159.477 29.9545Z" />
    </g>
  </g>
</svg>