<?xml version="1.0" encoding="utf-8"?>
<svg width="458px" height="141.08264px" viewBox="0 0 458 141.08264" version="1.1" xmlns:xlink="http://www.w3.org/1999/xlink" xmlns="http://www.w3.org/2000/svg">
  <g id="Group-4" transform="translate(1.5 0)">
    <g id="Group-Copy-3">
      <path d="M27.4345 60.3068L27.4345 63.9999C27.4345 63.9999 1.14441e-05 78.9103 1.14441e-05 78.9103C1.14441e-05 78.9103 1.14441e-05 119.534 1.14441e-05 119.534L37.9862 139.583L76.5 119.534L76.5 78.9103L48.5 63.9999L48.5 60.5683" id="Vector-5" fill="none" fill-rule="evenodd" stroke="#8F8D98" stroke-width="3" />
      <path d="M27.5 18.5826L27.5 64.8749" id="Vector-6" fill="none" fill-rule="evenodd" stroke="#8F8D98" stroke-width="3" stroke-linejoin="round" />
      <path d="M48.5 18.9897L48.5 64.6968L48.5 56.1465" id="Vector-7" fill="none" fill-rule="evenodd" stroke="#8F8D98" stroke-width="3" />
      <path d="M51 81.5826L61 88L38 99L15 88L26 81.5826L38 89L51 81.5826Z" id="Vector-8" fill="#FFFFFF" fill-rule="evenodd" stroke="none" />
      <path d="M38 124C38 124 61 111 61 111C61 111 61 88 61 88L38 99L38 124Z" id="Vector-9" fill="#6442D4" fill-rule="evenodd" stroke="none" />
      <path d="M38 124C38 124 15 111 15 111C15 111 15 88 15 88L38 99L38 124Z" id="Vector-10" fill="#4916CD" fill-rule="evenodd" stroke="none" />
      <path d="M18.999 0L57.001 0Q57.1237 0 57.2463 0.00602151Q57.3689 0.012043 57.491 0.0240715Q57.6131 0.0361001 57.7345 0.0541066Q57.8559 0.0721132 57.9763 0.0960544Q58.0966 0.119996 58.2157 0.149814Q58.3347 0.179632 58.4521 0.215255Q58.5696 0.250879 58.6851 0.292221Q58.8006 0.333564 58.914 0.380526Q59.0274 0.427489 59.1383 0.479957Q59.2493 0.532426 59.3575 0.590276Q59.4657 0.648125 59.571 0.711215Q59.6763 0.774305 59.7783 0.842483Q59.8803 0.910662 59.9789 0.983765Q60.0775 1.05687 60.1723 1.13472Q60.2672 1.21257 60.3581 1.29499Q60.449 1.3774 60.5358 1.46417Q60.6226 1.55095 60.705 1.64188Q60.7874 1.73281 60.8653 1.82767Q60.9431 1.92253 61.0162 2.0211Q61.0893 2.11967 61.1575 2.2217Q61.2257 2.32374 61.2888 2.429Q61.3519 2.53426 61.4097 2.64249Q61.4676 2.75072 61.52 2.86165Q61.5725 2.97259 61.6195 3.08597Q61.6664 3.19934 61.7078 3.31489Q61.7491 3.43043 61.7847 3.54787Q61.8204 3.6653 61.8502 3.78434Q61.88 3.90338 61.9039 4.02374Q61.9279 4.1441 61.9459 4.26549Q61.9639 4.38688 61.9759 4.50901Q61.988 4.63114 61.994 4.75371Q62 4.87628 62 4.999L62 14.001Q62 14.1237 61.994 14.2463Q61.988 14.3689 61.9759 14.491Q61.9639 14.6131 61.9459 14.7345Q61.9279 14.8559 61.9039 14.9763Q61.88 15.0966 61.8502 15.2157Q61.8204 15.3347 61.7847 15.4521Q61.7491 15.5696 61.7078 15.6851Q61.6664 15.8007 61.6195 15.914Q61.5725 16.0274 61.52 16.1383Q61.4676 16.2493 61.4097 16.3575Q61.3519 16.4657 61.2888 16.571Q61.2257 16.6763 61.1575 16.7783Q61.0893 16.8803 61.0162 16.9789Q60.9431 17.0775 60.8653 17.1723Q60.7874 17.2672 60.705 17.3581Q60.6226 17.449 60.5358 17.5358Q60.449 17.6226 60.3581 17.705Q60.2672 17.7874 60.1723 17.8653Q60.0775 17.9431 59.9789 18.0162Q59.8803 18.0893 59.7783 18.1575Q59.6763 18.2257 59.571 18.2888Q59.4657 18.3519 59.3575 18.4097Q59.2493 18.4676 59.1383 18.52Q59.0274 18.5725 58.914 18.6195Q58.8006 18.6664 58.6851 18.7078Q58.5696 18.7491 58.4521 18.7847Q58.3347 18.8204 58.2157 18.8502Q58.0966 18.88 57.9762 18.9039Q57.8559 18.9279 57.7345 18.9459Q57.6131 18.9639 57.491 18.9759Q57.3689 18.988 57.2463 18.994Q57.1237 19 57.001 19L18.999 19Q18.8763 19 18.7537 18.994Q18.6311 18.988 18.509 18.9759Q18.3869 18.9639 18.2655 18.9459Q18.1441 18.9279 18.0237 18.9039Q17.9034 18.88 17.7843 18.8502Q17.6653 18.8204 17.5479 18.7847Q17.4304 18.7491 17.3149 18.7078Q17.1993 18.6664 17.086 18.6195Q16.9726 18.5725 16.8617 18.52Q16.7507 18.4676 16.6425 18.4097Q16.5343 18.3519 16.429 18.2888Q16.3237 18.2257 16.2217 18.1575Q16.1197 18.0893 16.0211 18.0162Q15.9225 17.9431 15.8277 17.8653Q15.7328 17.7874 15.6419 17.705Q15.5509 17.6226 15.4642 17.5358Q15.3774 17.449 15.295 17.3581Q15.2126 17.2672 15.1347 17.1723Q15.0569 17.0775 14.9838 16.9789Q14.9107 16.8803 14.8425 16.7783Q14.7743 16.6763 14.7112 16.571Q14.6481 16.4657 14.5903 16.3575Q14.5324 16.2493 14.48 16.1383Q14.4275 16.0274 14.3805 15.914Q14.3336 15.8007 14.2922 15.6851Q14.2509 15.5696 14.2153 15.4521Q14.1796 15.3347 14.1498 15.2157Q14.12 15.0966 14.0961 14.9763Q14.0721 14.8559 14.0541 14.7345Q14.0361 14.6131 14.0241 14.491Q14.012 14.3689 14.006 14.2463Q14 14.1237 14 14.001L14 4.999Q14 4.87628 14.006 4.75371Q14.012 4.63114 14.0241 4.50901Q14.0361 4.38688 14.0541 4.26549Q14.0721 4.1441 14.0961 4.02374Q14.12 3.90338 14.1498 3.78434Q14.1796 3.6653 14.2153 3.54787Q14.2509 3.43043 14.2922 3.31489Q14.3336 3.19934 14.3805 3.08597Q14.4275 2.97259 14.48 2.86165Q14.5324 2.75072 14.5903 2.64249Q14.6481 2.53426 14.7112 2.429Q14.7743 2.32374 14.8425 2.2217Q14.9107 2.11967 14.9838 2.0211Q15.0569 1.92253 15.1347 1.82767Q15.2126 1.73281 15.295 1.64188Q15.3774 1.55095 15.4642 1.46417Q15.5509 1.3774 15.6419 1.29499Q15.7328 1.21257 15.8277 1.13472Q15.9225 1.05687 16.0211 0.983765Q16.1197 0.910662 16.2217 0.842483Q16.3237 0.774305 16.429 0.711215Q16.5343 0.648125 16.6425 0.590276Q16.7507 0.532426 16.8617 0.479957Q16.9726 0.427489 17.086 0.380526Q17.1993 0.333564 17.3149 0.292221Q17.4304 0.250879 17.5479 0.215255Q17.6653 0.179632 17.7843 0.149814Q17.9034 0.119996 18.0237 0.0960544Q18.1441 0.0721132 18.2655 0.0541066Q18.3869 0.0361001 18.509 0.0240715Q18.6311 0.012043 18.7537 0.00602151Q18.8763 0 18.999 0Z" id="Rectangle-2" fill="#846CD4" fill-rule="evenodd" stroke="none" />
    </g>
    <g id="LLcheD" fill="#4916CD" transform="translate(92.5 24.79126)">
      <path d="M6.78125 18.5L6.78125 74.5L39.5938 74.5L39.5938 68.4844L13.5625 68.4844L13.5625 18.5L6.78125 18.5ZM50.0938 18.5L50.0938 74.5L82.9063 74.5L82.9063 68.4844L56.875 68.4844L56.875 18.5L50.0938 18.5ZM141.969 74.5L141.969 49.2344Q141.969 43.7383 145.1 40.7441Q148.23 37.75 153.016 37.75Q157.582 37.75 160.166 40.498Q162.75 43.2461 162.75 48.25L162.75 74.5L169.203 74.5L169.203 47.8125Q169.203 39.7188 165.266 35.8359Q161.328 31.9531 154.875 31.9531Q149.926 31.9531 146.959 33.8809Q143.992 35.8086 142.516 39.0625L141.969 39.0625L141.969 18.5L135.516 18.5L135.516 74.5L141.969 74.5ZM226.734 74.5L244.016 74.5Q252.547 74.5 258.508 71.123Q264.469 67.7461 267.586 61.4434Q270.703 55.1406 270.703 46.3906Q270.703 37.6953 267.613 31.4473Q264.523 25.1992 258.727 21.8496Q252.93 18.5 244.781 18.5L226.734 18.5L226.734 74.5ZM243.578 68.4844L233.516 68.4844L233.516 24.5156L244.344 24.5156Q254.188 24.5156 259.164 30.3672Q264.141 36.2188 264.141 46.3906Q264.141 56.6445 259.068 62.5645Q253.996 68.4844 243.578 68.4844ZM109.594 75.375Q103.688 75.375 99.4219 72.5859Q95.1563 69.7969 92.8594 64.9023Q90.5625 60.0078 90.5625 53.7188Q90.5625 47.3203 92.9277 42.4121Q95.293 37.5039 99.5449 34.7285Q103.797 31.9531 109.484 31.9531Q113.914 31.9531 117.469 33.5938Q121.023 35.2344 123.293 38.1875Q125.563 41.1406 126.109 45.0781L119.656 45.0781Q118.918 42.207 116.389 39.9785Q113.859 37.75 109.594 37.75Q103.934 37.75 100.475 42.0566Q97.0156 46.3633 97.0156 53.5Q97.0156 60.8008 100.434 65.1895Q103.852 69.5781 109.594 69.5781Q113.367 69.5781 116.061 67.6367Q118.754 65.6953 119.656 62.25L126.109 62.25Q125.563 65.9688 123.416 68.9355Q121.27 71.9023 117.756 73.6387Q114.242 75.375 109.594 75.375ZM198.625 75.375Q192.555 75.375 188.166 72.6816Q183.777 69.9883 181.412 65.1348Q179.047 60.2813 179.047 53.8281Q179.047 47.375 181.412 42.4395Q183.777 37.5039 188.029 34.7285Q192.281 31.9531 197.969 31.9531Q201.25 31.9531 204.449 33.0469Q207.648 34.1406 210.273 36.5879Q212.898 39.0352 214.457 43.0547Q216.016 47.0742 216.016 52.9531L216.016 55.6875L185.527 55.6875Q185.746 62.4141 189.342 65.9961Q192.938 69.5781 198.625 69.5781Q202.426 69.5781 205.16 67.9375Q207.895 66.2969 209.125 63.0156L215.359 64.7656Q213.883 69.5234 209.453 72.4492Q205.023 75.375 198.625 75.375ZM185.527 50.1094L209.453 50.1094Q209.453 44.7773 206.336 41.2637Q203.219 37.75 197.969 37.75Q194.277 37.75 191.57 39.4727Q188.863 41.1953 187.305 44.0254Q185.746 46.8555 185.527 50.1094Z" />
    </g>
    <path d="M15 88.0826C15 88.0826 38 74.5826 38 74.5826L61 88.0826L38 99.0826C38 99.0826 15 88.0826 15 88.0826Z" id="Vector-28" fill="#846CD4" fill-rule="evenodd" stroke="none" />
  </g>
</svg>