<?xml version="1.0" encoding="utf-8"?>
<svg width="722px" height="670px" viewBox="0 0 722 670" version="1.1" xmlns:xlink="http://www.w3.org/1999/xlink" xmlns="http://www.w3.org/2000/svg">
  <defs>
    <rect width="722" height="670" id="artboard_1" />
    <clipPath id="clip_1">
      <use xlink:href="#artboard_1" clip-rule="evenodd" />
    </clipPath>
  </defs>
  <g id="Artboard-Copy-6" clip-path="url(#clip_1)">
    <use xlink:href="#artboard_1" stroke="none" fill="#FFFFFF" />
    <g id="Group-4" transform="translate(189.5 267.00003)" artboard="0ba8ed6b-4aaa-42f9-8d5c-911502bf0cd5">
      <g id="Group-Copy-3">
        <path d="M27.4345 42.4127C27.4345 48.6678 27.4345 45.9871 27.4345 45.9871C27.4345 45.9871 0 60.7952 0 60.7952C0 60.7952 0 100.114 0 100.114L37.9862 119.517L76.5 100.114L76.5 60.7952L48.6976 45.7339L48.6976 42.4127L48.6976 23.4173L27.4345 23.4173C27.4345 23.4173 27.4345 36.1575 27.4345 42.4127Z" id="Vector-4" fill="#D3D3D3" fill-rule="evenodd" stroke="none" />
        <path d="M27.4345 41.7241L27.4345 45.4172C27.4345 45.4172 1.14441e-05 60.3277 1.14441e-05 60.3277C1.14441e-05 60.3277 1.14441e-05 100.952 1.14441e-05 100.952L37.9862 121L76.5 100.952L76.5 60.3277L48.5 45.4172L48.5 41.9857" id="Vector-5" fill="none" fill-rule="evenodd" stroke="#8F8D98" stroke-width="3" />
        <path d="M27.5 -3.05176e-05L27.5 46.2922" id="Vector-6" fill="none" fill-rule="evenodd" stroke="#8F8D98" stroke-width="3" stroke-linejoin="round" />
        <path d="M48.5 0.407074L48.5 46.1141L48.5 37.5639" id="Vector-7" fill="none" fill-rule="evenodd" stroke="#8F8D98" stroke-width="3" />
        <path d="M51 63L61 69.4173L38 80.4173L15 69.4173L26 63L38 70.4173L51 63Z" id="Vector-8" fill="#FFFFFF" fill-rule="evenodd" stroke="none" />
        <path d="M38 105.417C38 105.417 61 92.4173 61 92.4173C61 92.4173 61 69.4173 61 69.4173L38 80.4173L38 105.417Z" id="Vector-9" fill="#6442D4" fill-rule="evenodd" stroke="none" />
        <path d="M38 105.417C38 105.417 15 92.4173 15 92.4173C15 92.4173 15 69.4173 15 69.4173L38 80.4173L38 105.417Z" id="Vector-10" fill="#4916CD" fill-rule="evenodd" stroke="none" />
        <path d="M42 99.6747C42 99.6747 56.22 91.6373 56.22 91.6373C56.22 91.6373 56.22 77.4173 56.22 77.4173L42 84.2182L42 99.6747Z" id="Vector-11" fill="#4916CD" fill-rule="evenodd" stroke="#4916CD" stroke-width="1" />
      </g>
      <g id="LLcheM" fill="#4916CD" transform="translate(92.5 15.5)">
        <path d="M6.51705 18.0909L6.51705 71.9091L38.0511 71.9091L38.0511 66.1278L13.0341 66.1278L13.0341 18.0909L6.51705 18.0909ZM48.142 18.0909L48.142 71.9091L79.6761 71.9091L79.6761 66.1278L54.6591 66.1278L54.6591 18.0909L48.142 18.0909ZM136.438 71.9091L136.438 47.6278Q136.438 42.3459 139.446 39.4684Q142.455 36.5909 147.054 36.5909Q151.442 36.5909 153.926 39.2319Q156.409 41.8729 156.409 46.6818L156.409 71.9091L162.611 71.9091L162.611 46.2614Q162.611 38.483 158.827 34.7514Q155.043 31.0199 148.841 31.0199Q144.085 31.0199 141.233 32.8725Q138.382 34.7251 136.963 37.8523L136.438 37.8523L136.438 18.0909L130.236 18.0909L130.236 71.9091L136.438 71.9091ZM225.679 18.0909L217.901 18.0909L217.901 71.9091L223.997 71.9091L223.997 31.0199L224.523 31.0199L241.341 71.9091L247.227 71.9091L264.045 31.0199L264.571 31.0199L264.571 71.9091L270.668 71.9091L270.668 18.0909L262.889 18.0909L244.599 62.7642L243.969 62.7642L225.679 18.0909ZM105.324 72.75Q99.6477 72.75 95.5483 70.0696Q91.4489 67.3892 89.2415 62.6854Q87.0341 57.9815 87.0341 51.9375Q87.0341 45.7884 89.3072 41.0714Q91.5803 36.3544 95.6665 33.6871Q99.7528 31.0199 105.219 31.0199Q109.476 31.0199 112.892 32.5966Q116.308 34.1733 118.489 37.0114Q120.67 39.8494 121.196 43.6335L114.994 43.6335Q114.285 40.8743 111.854 38.7326Q109.423 36.5909 105.324 36.5909Q99.8842 36.5909 96.56 40.7298Q93.2358 44.8686 93.2358 51.7273Q93.2358 58.7436 96.5206 62.9613Q99.8054 67.179 105.324 67.179Q108.95 67.179 111.539 65.3132Q114.127 63.4474 114.994 60.1364L121.196 60.1364Q120.67 63.7102 118.608 66.5614Q116.545 69.4126 113.168 71.0813Q109.791 72.75 105.324 72.75ZM190.886 72.75Q185.053 72.75 180.835 70.1616Q176.617 67.5732 174.344 62.9087Q172.071 58.2443 172.071 52.0426Q172.071 45.8409 174.344 41.0977Q176.617 36.3544 180.703 33.6871Q184.79 31.0199 190.256 31.0199Q193.409 31.0199 196.484 32.071Q199.558 33.1222 202.081 35.4741Q204.604 37.826 206.102 41.6889Q207.599 45.5518 207.599 51.2017L207.599 53.8295L178.299 53.8295Q178.509 60.294 181.965 63.7365Q185.42 67.179 190.886 67.179Q194.539 67.179 197.167 65.6023Q199.795 64.0256 200.977 60.8722L206.969 62.554Q205.55 67.1264 201.293 69.9382Q197.036 72.75 190.886 72.75ZM178.299 48.4687L201.293 48.4687Q201.293 43.3445 198.297 39.9677Q195.301 36.5909 190.256 36.5909Q186.708 36.5909 184.107 38.2464Q181.505 39.902 180.007 42.6218Q178.509 45.3416 178.299 48.4687Z" />
      </g>
    </g>
  </g>
</svg>