<?xml version="1.0" encoding="utf-8"?>
<svg width="722px" height="670px" viewBox="0 0 722 670" version="1.1" xmlns:xlink="http://www.w3.org/1999/xlink" xmlns="http://www.w3.org/2000/svg">
  <defs>
    <rect width="722" height="670" id="artboard_1" />
    <clipPath id="clip_1">
      <use xlink:href="#artboard_1" clip-rule="evenodd" />
    </clipPath>
  </defs>
  <g id="Artboard-Copy-5" clip-path="url(#clip_1)">
    <use xlink:href="#artboard_1" stroke="none" fill="#FFFFFF" />
    <g id="Group-5" transform="translate(189.5 267)" artboard="da5eb3d1-563b-4a4b-a240-c8146798f9c6">
      <g id="Group-4">
        <g id="Group-Copy-3">
          <path d="M27.4345 41.7241L27.4345 45.4172C27.4345 45.4172 1.13994e-05 60.3277 1.13994e-05 60.3277C1.13994e-05 60.3277 1.13994e-05 100.952 1.13994e-05 100.952L37.9862 121L76.5 100.952L76.5 60.3277L48.5 45.4172L48.5 41.9857" id="Vector-5" fill="none" fill-rule="evenodd" stroke="#8F8D98" stroke-width="3" />
          <path d="M27.5 0L27.5 46.2923" id="Vector-6" fill="none" fill-rule="evenodd" stroke="#8F8D98" stroke-width="3" stroke-linejoin="round" />
          <path d="M48.5 0.407104L48.5 46.1141L48.5 37.5639" id="Vector-7" fill="none" fill-rule="evenodd" stroke="#8F8D98" stroke-width="3" />
          <path d="M51 63L61 69.4174L38 80.4174L15 69.4174L26 63L38 70.4174L51 63Z" id="Vector-8" fill="#FFFFFF" fill-rule="evenodd" stroke="none" />
          <path d="M38 105.417C38 105.417 61 92.4174 61 92.4174C61 92.4174 61 69.4174 61 69.4174L38 80.4174L38 105.417Z" id="Vector-9" fill="#6442D4" fill-rule="evenodd" stroke="none" />
          <path d="M38 105.417C38 105.417 15 92.4174 15 92.4174C15 92.4174 15 69.4174 15 69.4174L38 80.4174L38 105.417Z" id="Vector-10" fill="#4916CD" fill-rule="evenodd" stroke="none" />
        </g>
        <path d="M15 69.5C15 69.5 38 56 38 56L61 69.5L38 80.5C38 80.5 15 69.5 15 69.5Z" id="Vector-28" fill="#846CD4" fill-rule="evenodd" stroke="none" />
      </g>
      <g id="LLcheM" fill="#4916CD" transform="translate(92.5 15.5)">
        <path d="M6.78125 18.5L6.78125 74.5L39.5938 74.5L39.5938 68.4844L13.5625 68.4844L13.5625 18.5L6.78125 18.5ZM50.0938 18.5L50.0938 74.5L82.9063 74.5L82.9063 68.4844L56.875 68.4844L56.875 18.5L50.0938 18.5ZM141.969 74.5L141.969 49.2344Q141.969 43.7383 145.1 40.7441Q148.23 37.75 153.016 37.75Q157.582 37.75 160.166 40.498Q162.75 43.2461 162.75 48.25L162.75 74.5L169.203 74.5L169.203 47.8125Q169.203 39.7188 165.266 35.8359Q161.328 31.9531 154.875 31.9531Q149.926 31.9531 146.959 33.8809Q143.992 35.8086 142.516 39.0625L141.969 39.0625L141.969 18.5L135.516 18.5L135.516 74.5L141.969 74.5ZM234.828 18.5L226.734 18.5L226.734 74.5L233.078 74.5L233.078 31.9531L233.625 31.9531L251.125 74.5L257.25 74.5L274.75 31.9531L275.297 31.9531L275.297 74.5L281.641 74.5L281.641 18.5L273.547 18.5L254.516 64.9844L253.859 64.9844L234.828 18.5ZM109.594 75.375Q103.688 75.375 99.4219 72.5859Q95.1563 69.7969 92.8594 64.9023Q90.5625 60.0078 90.5625 53.7188Q90.5625 47.3203 92.9277 42.4121Q95.293 37.5039 99.5449 34.7285Q103.797 31.9531 109.484 31.9531Q113.914 31.9531 117.469 33.5938Q121.023 35.2344 123.293 38.1875Q125.563 41.1406 126.109 45.0781L119.656 45.0781Q118.918 42.207 116.389 39.9785Q113.859 37.75 109.594 37.75Q103.934 37.75 100.475 42.0566Q97.0156 46.3633 97.0156 53.5Q97.0156 60.8008 100.434 65.1895Q103.852 69.5781 109.594 69.5781Q113.367 69.5781 116.061 67.6367Q118.754 65.6953 119.656 62.25L126.109 62.25Q125.563 65.9688 123.416 68.9355Q121.27 71.9023 117.756 73.6387Q114.242 75.375 109.594 75.375ZM198.625 75.375Q192.555 75.375 188.166 72.6816Q183.777 69.9883 181.412 65.1348Q179.047 60.2813 179.047 53.8281Q179.047 47.375 181.412 42.4395Q183.777 37.5039 188.029 34.7285Q192.281 31.9531 197.969 31.9531Q201.25 31.9531 204.449 33.0469Q207.648 34.1406 210.273 36.5879Q212.898 39.0352 214.457 43.0547Q216.016 47.0742 216.016 52.9531L216.016 55.6875L185.527 55.6875Q185.746 62.4141 189.342 65.9961Q192.938 69.5781 198.625 69.5781Q202.426 69.5781 205.16 67.9375Q207.895 66.2969 209.125 63.0156L215.359 64.7656Q213.883 69.5234 209.453 72.4492Q205.023 75.375 198.625 75.375ZM185.527 50.1094L209.453 50.1094Q209.453 44.7773 206.336 41.2637Q203.219 37.75 197.969 37.75Q194.277 37.75 191.57 39.4727Q188.863 41.1953 187.305 44.0254Q185.746 46.8555 185.527 50.1094Z" />
      </g>
    </g>
  </g>
</svg>