<?xml version="1.0" encoding="utf-8"?>
<svg width="458px" height="141.08264px" viewBox="0 0 458 141.08264" version="1.1" xmlns:xlink="http://www.w3.org/1999/xlink" xmlns="http://www.w3.org/2000/svg">
  <g id="Group-4" transform="translate(1.5 0)">
    <g id="Group-Copy-3">
      <path d="M27.4345 60.9953C27.4345 67.2505 27.4345 64.5697 27.4345 64.5697C27.4345 64.5697 0 79.3779 0 79.3779C0 79.3779 0 118.696 0 118.696L37.9862 138.1L76.5 118.696L76.5 79.3779L48.6976 64.3166L48.6976 60.9953L48.6976 42L27.4345 42C27.4345 42 27.4345 54.7402 27.4345 60.9953Z" id="Vector-4" fill="#D3D3D3" fill-rule="evenodd" stroke="none" />
      <path d="M27.4345 60.3068L27.4345 63.9999C27.4345 63.9999 1.14441e-05 78.9103 1.14441e-05 78.9103C1.14441e-05 78.9103 1.14441e-05 119.534 1.14441e-05 119.534L37.9862 139.583L76.5 119.534L76.5 78.9103L48.5 63.9999L48.5 60.5683" id="Vector-5" fill="none" fill-rule="evenodd" stroke="#8F8D98" stroke-width="3" />
      <path d="M27.5 18.5826L27.5 64.8749" id="Vector-6" fill="none" fill-rule="evenodd" stroke="#8F8D98" stroke-width="3" stroke-linejoin="round" />
      <path d="M48.5 18.9897L48.5 64.6968L48.5 56.1465" id="Vector-7" fill="none" fill-rule="evenodd" stroke="#8F8D98" stroke-width="3" />
      <path d="M51 81.5826L61 88L38 99L15 88L26 81.5826L38 89L51 81.5826Z" id="Vector-8" fill="#FFFFFF" fill-rule="evenodd" stroke="none" />
      <path d="M38 124C38 124 61 111 61 111C61 111 61 88 61 88L38 99L38 124Z" id="Vector-9" fill="#6442D4" fill-rule="evenodd" stroke="none" />
      <path d="M38 124C38 124 15 111 15 111C15 111 15 88 15 88L38 99L38 124Z" id="Vector-10" fill="#4916CD" fill-rule="evenodd" stroke="none" />
      <path d="M42 118.257C42 118.257 56.22 110.22 56.22 110.22C56.22 110.22 56.22 96 56.22 96L42 102.801L42 118.257Z" id="Vector-11" fill="#4916CD" fill-rule="evenodd" stroke="#4916CD" stroke-width="1" />
      <path d="M18.999 0L57.001 0Q57.1237 0 57.2463 0.00602151Q57.3689 0.012043 57.491 0.0240715Q57.6131 0.0361001 57.7345 0.0541066Q57.8559 0.0721132 57.9763 0.0960544Q58.0966 0.119996 58.2157 0.149814Q58.3347 0.179632 58.4521 0.215255Q58.5696 0.250879 58.6851 0.292221Q58.8006 0.333564 58.914 0.380526Q59.0274 0.427489 59.1383 0.479957Q59.2493 0.532426 59.3575 0.590276Q59.4657 0.648125 59.571 0.711215Q59.6763 0.774305 59.7783 0.842483Q59.8803 0.910662 59.9789 0.983765Q60.0775 1.05687 60.1723 1.13472Q60.2672 1.21257 60.3581 1.29499Q60.449 1.3774 60.5358 1.46417Q60.6226 1.55095 60.705 1.64188Q60.7874 1.73281 60.8653 1.82767Q60.9431 1.92253 61.0162 2.0211Q61.0893 2.11967 61.1575 2.2217Q61.2257 2.32374 61.2888 2.429Q61.3519 2.53426 61.4097 2.64249Q61.4676 2.75072 61.52 2.86165Q61.5725 2.97259 61.6195 3.08597Q61.6664 3.19934 61.7078 3.31489Q61.7491 3.43043 61.7847 3.54787Q61.8204 3.6653 61.8502 3.78434Q61.88 3.90338 61.9039 4.02374Q61.9279 4.1441 61.9459 4.26549Q61.9639 4.38688 61.9759 4.50901Q61.988 4.63114 61.994 4.75371Q62 4.87628 62 4.999L62 14.001Q62 14.1237 61.994 14.2463Q61.988 14.3689 61.9759 14.491Q61.9639 14.6131 61.9459 14.7345Q61.9279 14.8559 61.9039 14.9763Q61.88 15.0966 61.8502 15.2157Q61.8204 15.3347 61.7847 15.4521Q61.7491 15.5696 61.7078 15.6851Q61.6664 15.8007 61.6195 15.914Q61.5725 16.0274 61.52 16.1383Q61.4676 16.2493 61.4097 16.3575Q61.3519 16.4657 61.2888 16.571Q61.2257 16.6763 61.1575 16.7783Q61.0893 16.8803 61.0162 16.9789Q60.9431 17.0775 60.8653 17.1723Q60.7874 17.2672 60.705 17.3581Q60.6226 17.449 60.5358 17.5358Q60.449 17.6226 60.3581 17.705Q60.2672 17.7874 60.1723 17.8653Q60.0775 17.9431 59.9789 18.0162Q59.8803 18.0893 59.7783 18.1575Q59.6763 18.2257 59.571 18.2888Q59.4657 18.3519 59.3575 18.4097Q59.2493 18.4676 59.1383 18.52Q59.0274 18.5725 58.914 18.6195Q58.8006 18.6664 58.6851 18.7078Q58.5696 18.7491 58.4521 18.7847Q58.3347 18.8204 58.2157 18.8502Q58.0966 18.88 57.9762 18.9039Q57.8559 18.9279 57.7345 18.9459Q57.6131 18.9639 57.491 18.9759Q57.3689 18.988 57.2463 18.994Q57.1237 19 57.001 19L18.999 19Q18.8763 19 18.7537 18.994Q18.6311 18.988 18.509 18.9759Q18.3869 18.9639 18.2655 18.9459Q18.1441 18.9279 18.0237 18.9039Q17.9034 18.88 17.7843 18.8502Q17.6653 18.8204 17.5479 18.7847Q17.4304 18.7491 17.3149 18.7078Q17.1993 18.6664 17.086 18.6195Q16.9726 18.5725 16.8617 18.52Q16.7507 18.4676 16.6425 18.4097Q16.5343 18.3519 16.429 18.2888Q16.3237 18.2257 16.2217 18.1575Q16.1197 18.0893 16.0211 18.0162Q15.9225 17.9431 15.8277 17.8653Q15.7328 17.7874 15.6419 17.705Q15.5509 17.6226 15.4642 17.5358Q15.3774 17.449 15.295 17.3581Q15.2126 17.2672 15.1347 17.1723Q15.0569 17.0775 14.9838 16.9789Q14.9107 16.8803 14.8425 16.7783Q14.7743 16.6763 14.7112 16.571Q14.6481 16.4657 14.5903 16.3575Q14.5324 16.2493 14.48 16.1383Q14.4275 16.0274 14.3805 15.914Q14.3336 15.8007 14.2922 15.6851Q14.2509 15.5696 14.2153 15.4521Q14.1796 15.3347 14.1498 15.2157Q14.12 15.0966 14.0961 14.9763Q14.0721 14.8559 14.0541 14.7345Q14.0361 14.6131 14.0241 14.491Q14.012 14.3689 14.006 14.2463Q14 14.1237 14 14.001L14 4.999Q14 4.87628 14.006 4.75371Q14.012 4.63114 14.0241 4.50901Q14.0361 4.38688 14.0541 4.26549Q14.0721 4.1441 14.0961 4.02374Q14.12 3.90338 14.1498 3.78434Q14.1796 3.6653 14.2153 3.54787Q14.2509 3.43043 14.2922 3.31489Q14.3336 3.19934 14.3805 3.08597Q14.4275 2.97259 14.48 2.86165Q14.5324 2.75072 14.5903 2.64249Q14.6481 2.53426 14.7112 2.429Q14.7743 2.32374 14.8425 2.2217Q14.9107 2.11967 14.9838 2.0211Q15.0569 1.92253 15.1347 1.82767Q15.2126 1.73281 15.295 1.64188Q15.3774 1.55095 15.4642 1.46417Q15.5509 1.3774 15.6419 1.29499Q15.7328 1.21257 15.8277 1.13472Q15.9225 1.05687 16.0211 0.983765Q16.1197 0.910662 16.2217 0.842483Q16.3237 0.774305 16.429 0.711215Q16.5343 0.648125 16.6425 0.590276Q16.7507 0.532426 16.8617 0.479957Q16.9726 0.427489 17.086 0.380526Q17.1993 0.333564 17.3149 0.292221Q17.4304 0.250879 17.5479 0.215255Q17.6653 0.179632 17.7843 0.149814Q17.9034 0.119996 18.0237 0.0960544Q18.1441 0.0721132 18.2655 0.0541066Q18.3869 0.0361001 18.509 0.0240715Q18.6311 0.012043 18.7537 0.00602151Q18.8763 0 18.999 0Z" id="Rectangle-2" fill="#846CD4" fill-rule="evenodd" stroke="none" />
    </g>
    <g id="LLcheM" fill="#4916CD" transform="translate(92.5 24.79126)">
      <path d="M4.67756 18.0909L4.67756 71.9091L39.1286 71.9091L39.1286 62.5277L16.0561 62.5277L16.0561 18.0909L4.67756 18.0909ZM46.6705 18.0909L46.6705 71.9091L81.1215 71.9091L81.1215 62.5277L58.049 62.5277L58.049 18.0909L46.6705 18.0909ZM143.112 71.9091L143.112 48.5739Q143.139 44.6584 145.306 42.4904Q147.474 40.3224 150.891 40.3224Q154.307 40.3224 156.212 42.3984Q158.117 44.4744 158.091 48.206L158.091 71.9091L169.286 71.9091L169.286 46.2088Q169.312 39.1136 165.475 35.0668Q161.638 31.0199 155.332 31.0199Q150.733 31.0199 147.698 33.0565Q144.663 35.093 143.27 38.6669L142.797 38.6669L142.797 18.0909L131.918 18.0909L131.918 71.9091L143.112 71.9091ZM236.585 18.0909L222.552 18.0909L222.552 71.9091L233.589 71.9091L233.589 36.7486L234.036 36.7486L247.963 71.6463L255.479 71.6463L269.406 36.88L269.853 36.88L269.853 71.9091L280.89 71.9091L280.89 18.0909L266.857 18.0909L252.036 54.25L251.406 54.25L236.585 18.0909ZM106.69 72.6974Q100.489 72.6974 96.0344 70.0565Q91.5803 67.4155 89.2021 62.7116Q86.8239 58.0078 86.8239 51.8849Q86.8239 45.6832 89.2283 40.9925Q91.6328 36.3018 96.0739 33.6609Q100.515 31.0199 106.638 31.0199Q111.92 31.0199 115.901 32.9382Q119.882 34.8565 122.181 38.3253Q124.481 41.794 124.717 46.4716L114.153 46.4716Q113.707 43.4496 111.801 41.5969Q109.896 39.7443 106.822 39.7443Q102.933 39.7443 100.567 42.8714Q98.2024 45.9986 98.2024 51.7273Q98.2024 57.5085 100.554 60.6751Q102.906 63.8416 106.822 63.8416Q109.712 63.8416 111.683 62.0941Q113.654 60.3466 114.153 57.1143L124.717 57.1143Q124.455 61.7393 122.208 65.2607Q119.961 68.782 116.019 70.7397Q112.077 72.6974 106.69 72.6974ZM196.51 72.6974Q190.308 72.6974 185.815 70.1616Q181.321 67.6257 178.903 62.9613Q176.486 58.2969 176.486 51.9112Q176.486 45.6832 178.903 40.9794Q181.321 36.2756 185.723 33.6477Q190.124 31.0199 196.063 31.0199Q201.398 31.0199 205.694 33.2798Q209.991 35.5398 212.514 40.0991Q215.036 44.6584 215.036 51.517L215.036 54.5916L187.549 54.5916L187.549 54.6179Q187.549 59.1378 190.019 61.7393Q192.489 64.3409 196.694 64.3409Q199.506 64.3409 201.555 63.1584Q203.605 61.9758 204.446 59.6633L214.8 60.3466Q213.617 65.9702 208.808 69.3338Q203.999 72.6974 196.51 72.6974ZM187.549 47.6541L204.499 47.6541Q204.472 44.054 202.186 41.7152Q199.9 39.3764 196.247 39.3764Q192.516 39.3764 190.124 41.794Q187.733 44.2116 187.549 47.6541Z" />
    </g>
  </g>
</svg>