<?xml version="1.0" encoding="utf-8"?>
<svg width="458px" height="141.08264px" viewBox="0 0 458 141.08264" version="1.1" xmlns:xlink="http://www.w3.org/1999/xlink" xmlns="http://www.w3.org/2000/svg">
  <g id="Group-4" transform="translate(1.5 0)">
    <g id="Group-Copy-3">
      <path d="M27.4345 60.3068L27.4345 63.9999C27.4345 63.9999 1.14441e-05 78.9103 1.14441e-05 78.9103C1.14441e-05 78.9103 1.14441e-05 119.534 1.14441e-05 119.534L37.9862 139.583L76.5 119.534L76.5 78.9103L48.5 63.9999L48.5 60.5683" id="Vector-5" fill="none" fill-rule="evenodd" stroke="#8F8D98" stroke-width="3" />
      <path d="M27.5 18.5826L27.5 64.8749" id="Vector-6" fill="none" fill-rule="evenodd" stroke="#8F8D98" stroke-width="3" stroke-linejoin="round" />
      <path d="M48.5 18.9897L48.5 64.6968L48.5 56.1465" id="Vector-7" fill="none" fill-rule="evenodd" stroke="#8F8D98" stroke-width="3" />
      <path d="M51 81.5826L61 88L38 99L15 88L26 81.5826L38 89L51 81.5826Z" id="Vector-8" fill="#FFFFFF" fill-rule="evenodd" stroke="none" />
      <path d="M38 124C38 124 61 111 61 111C61 111 61 88 61 88L38 99L38 124Z" id="Vector-9" fill="#6442D4" fill-rule="evenodd" stroke="none" />
      <path d="M38 124C38 124 15 111 15 111C15 111 15 88 15 88L38 99L38 124Z" id="Vector-10" fill="#4916CD" fill-rule="evenodd" stroke="none" />
      <path d="M18.999 0L57.001 0Q57.1237 0 57.2463 0.00602151Q57.3689 0.012043 57.491 0.0240715Q57.6131 0.0361001 57.7345 0.0541066Q57.8559 0.0721132 57.9763 0.0960544Q58.0966 0.119996 58.2157 0.149814Q58.3347 0.179632 58.4521 0.215255Q58.5696 0.250879 58.6851 0.292221Q58.8006 0.333564 58.914 0.380526Q59.0274 0.427489 59.1383 0.479957Q59.2493 0.532426 59.3575 0.590276Q59.4657 0.648125 59.571 0.711215Q59.6763 0.774305 59.7783 0.842483Q59.8803 0.910662 59.9789 0.983765Q60.0775 1.05687 60.1723 1.13472Q60.2672 1.21257 60.3581 1.29499Q60.449 1.3774 60.5358 1.46417Q60.6226 1.55095 60.705 1.64188Q60.7874 1.73281 60.8653 1.82767Q60.9431 1.92253 61.0162 2.0211Q61.0893 2.11967 61.1575 2.2217Q61.2257 2.32374 61.2888 2.429Q61.3519 2.53426 61.4097 2.64249Q61.4676 2.75072 61.52 2.86165Q61.5725 2.97259 61.6195 3.08597Q61.6664 3.19934 61.7078 3.31489Q61.7491 3.43043 61.7847 3.54787Q61.8204 3.6653 61.8502 3.78434Q61.88 3.90338 61.9039 4.02374Q61.9279 4.1441 61.9459 4.26549Q61.9639 4.38688 61.9759 4.50901Q61.988 4.63114 61.994 4.75371Q62 4.87628 62 4.999L62 14.001Q62 14.1237 61.994 14.2463Q61.988 14.3689 61.9759 14.491Q61.9639 14.6131 61.9459 14.7345Q61.9279 14.8559 61.9039 14.9763Q61.88 15.0966 61.8502 15.2157Q61.8204 15.3347 61.7847 15.4521Q61.7491 15.5696 61.7078 15.6851Q61.6664 15.8007 61.6195 15.914Q61.5725 16.0274 61.52 16.1383Q61.4676 16.2493 61.4097 16.3575Q61.3519 16.4657 61.2888 16.571Q61.2257 16.6763 61.1575 16.7783Q61.0893 16.8803 61.0162 16.9789Q60.9431 17.0775 60.8653 17.1723Q60.7874 17.2672 60.705 17.3581Q60.6226 17.449 60.5358 17.5358Q60.449 17.6226 60.3581 17.705Q60.2672 17.7874 60.1723 17.8653Q60.0775 17.9431 59.9789 18.0162Q59.8803 18.0893 59.7783 18.1575Q59.6763 18.2257 59.571 18.2888Q59.4657 18.3519 59.3575 18.4097Q59.2493 18.4676 59.1383 18.52Q59.0274 18.5725 58.914 18.6195Q58.8006 18.6664 58.6851 18.7078Q58.5696 18.7491 58.4521 18.7847Q58.3347 18.8204 58.2157 18.8502Q58.0966 18.88 57.9762 18.9039Q57.8559 18.9279 57.7345 18.9459Q57.6131 18.9639 57.491 18.9759Q57.3689 18.988 57.2463 18.994Q57.1237 19 57.001 19L18.999 19Q18.8763 19 18.7537 18.994Q18.6311 18.988 18.509 18.9759Q18.3869 18.9639 18.2655 18.9459Q18.1441 18.9279 18.0237 18.9039Q17.9034 18.88 17.7843 18.8502Q17.6653 18.8204 17.5479 18.7847Q17.4304 18.7491 17.3149 18.7078Q17.1993 18.6664 17.086 18.6195Q16.9726 18.5725 16.8617 18.52Q16.7507 18.4676 16.6425 18.4097Q16.5343 18.3519 16.429 18.2888Q16.3237 18.2257 16.2217 18.1575Q16.1197 18.0893 16.0211 18.0162Q15.9225 17.9431 15.8277 17.8653Q15.7328 17.7874 15.6419 17.705Q15.5509 17.6226 15.4642 17.5358Q15.3774 17.449 15.295 17.3581Q15.2126 17.2672 15.1347 17.1723Q15.0569 17.0775 14.9838 16.9789Q14.9107 16.8803 14.8425 16.7783Q14.7743 16.6763 14.7112 16.571Q14.6481 16.4657 14.5903 16.3575Q14.5324 16.2493 14.48 16.1383Q14.4275 16.0274 14.3805 15.914Q14.3336 15.8007 14.2922 15.6851Q14.2509 15.5696 14.2153 15.4521Q14.1796 15.3347 14.1498 15.2157Q14.12 15.0966 14.0961 14.9763Q14.0721 14.8559 14.0541 14.7345Q14.0361 14.6131 14.0241 14.491Q14.012 14.3689 14.006 14.2463Q14 14.1237 14 14.001L14 4.999Q14 4.87628 14.006 4.75371Q14.012 4.63114 14.0241 4.50901Q14.0361 4.38688 14.0541 4.26549Q14.0721 4.1441 14.0961 4.02374Q14.12 3.90338 14.1498 3.78434Q14.1796 3.6653 14.2153 3.54787Q14.2509 3.43043 14.2922 3.31489Q14.3336 3.19934 14.3805 3.08597Q14.4275 2.97259 14.48 2.86165Q14.5324 2.75072 14.5903 2.64249Q14.6481 2.53426 14.7112 2.429Q14.7743 2.32374 14.8425 2.2217Q14.9107 2.11967 14.9838 2.0211Q15.0569 1.92253 15.1347 1.82767Q15.2126 1.73281 15.295 1.64188Q15.3774 1.55095 15.4642 1.46417Q15.5509 1.3774 15.6419 1.29499Q15.7328 1.21257 15.8277 1.13472Q15.9225 1.05687 16.0211 0.983765Q16.1197 0.910662 16.2217 0.842483Q16.3237 0.774305 16.429 0.711215Q16.5343 0.648125 16.6425 0.590276Q16.7507 0.532426 16.8617 0.479957Q16.9726 0.427489 17.086 0.380526Q17.1993 0.333564 17.3149 0.292221Q17.4304 0.250879 17.5479 0.215255Q17.6653 0.179632 17.7843 0.149814Q17.9034 0.119996 18.0237 0.0960544Q18.1441 0.0721132 18.2655 0.0541066Q18.3869 0.0361001 18.509 0.0240715Q18.6311 0.012043 18.7537 0.00602151Q18.8763 0 18.999 0Z" id="Rectangle-2" fill="#846CD4" fill-rule="evenodd" stroke="none" />
    </g>
    <g id="LLcheD" fill="#4916CD" transform="translate(92.5 24.79126)">
      <path d="M4.86719 18.5L4.86719 74.5L40.7148 74.5L40.7148 64.7383L16.707 64.7383L16.707 18.5L4.86719 18.5ZM48.5625 18.5L48.5625 74.5L84.4102 74.5L84.4102 64.7383L60.4023 64.7383L60.4023 18.5L48.5625 18.5ZM148.914 74.5L148.914 50.2188Q148.941 46.1445 151.197 43.8887Q153.453 41.6328 157.008 41.6328Q160.563 41.6328 162.545 43.793Q164.527 45.9531 164.5 49.8359L164.5 74.5L176.148 74.5L176.148 47.7578Q176.176 40.375 172.184 36.1641Q168.191 31.9531 161.629 31.9531Q156.844 31.9531 153.686 34.0723Q150.527 36.1914 149.078 39.9102L148.586 39.9102L148.586 18.5L137.266 18.5L137.266 74.5L148.914 74.5ZM231.574 74.5L251.426 74.5Q259.957 74.5 266.096 71.1367Q272.234 67.7734 275.529 61.4844Q278.824 55.1953 278.824 46.4453Q278.824 37.7227 275.543 31.4609Q272.262 25.1992 266.15 21.8496Q260.039 18.5 251.59 18.5L231.574 18.5L231.574 74.5ZM250.934 64.3555L243.414 64.3555L243.414 28.6445L250.961 28.6445Q258.836 28.6445 262.924 32.8828Q267.012 37.1211 267.012 46.4453Q267.012 55.8242 262.924 60.0898Q258.836 64.3555 250.934 64.3555ZM111.016 75.3203Q104.563 75.3203 99.9277 72.5723Q95.293 69.8242 92.8184 64.9297Q90.3438 60.0352 90.3438 53.6641Q90.3438 47.2109 92.8457 42.3301Q95.3477 37.4492 99.9688 34.7012Q104.59 31.9531 110.961 31.9531Q116.457 31.9531 120.6 33.9492Q124.742 35.9453 127.135 39.5547Q129.527 43.1641 129.773 48.0313L118.781 48.0313Q118.316 44.8867 116.334 42.959Q114.352 41.0312 111.152 41.0313Q107.105 41.0313 104.645 44.2852Q102.184 47.5391 102.184 53.5Q102.184 59.5156 104.631 62.8105Q107.078 66.1055 111.152 66.1055Q114.16 66.1055 116.211 64.2871Q118.262 62.4688 118.781 59.1055L129.773 59.1055Q129.5 63.918 127.162 67.582Q124.824 71.2461 120.723 73.2832Q116.621 75.3203 111.016 75.3203ZM204.477 75.3203Q198.023 75.3203 193.348 72.6816Q188.672 70.043 186.156 65.1895Q183.641 60.3359 183.641 53.6914Q183.641 47.2109 186.156 42.3164Q188.672 37.4219 193.252 34.6875Q197.832 31.9531 204.012 31.9531Q209.563 31.9531 214.033 34.3047Q218.504 36.6563 221.129 41.4004Q223.754 46.1445 223.754 53.2813L223.754 56.4805L195.152 56.4805L195.152 56.5078Q195.152 61.2109 197.723 63.918Q200.293 66.625 204.668 66.625Q207.594 66.625 209.727 65.3945Q211.859 64.1641 212.734 61.7578L223.508 62.4688Q222.277 68.3203 217.273 71.8203Q212.27 75.3203 204.477 75.3203ZM195.152 49.2617L212.789 49.2617Q212.762 45.5156 210.383 43.082Q208.004 40.6484 204.203 40.6484Q200.32 40.6484 197.832 43.1641Q195.344 45.6797 195.152 49.2617Z" />
    </g>
    <path d="M15 88.0826C15 88.0826 38 74.5826 38 74.5826L61 88.0826L38 99.0826C38 99.0826 15 88.0826 15 88.0826Z" id="Vector-28" fill="#846CD4" fill-rule="evenodd" stroke="none" />
  </g>
</svg>