<?xml version="1.0" encoding="utf-8"?>
<svg width="458px" height="141.08267px" viewBox="0 0 458 141.08267" version="1.1" xmlns:xlink="http://www.w3.org/1999/xlink" xmlns="http://www.w3.org/2000/svg">
  <g id="Group-4" transform="translate(1.5 0)">
    <g id="Group-Copy-3">
      <path d="M27.4345 60.9953C27.4345 67.2505 27.4345 64.5697 27.4345 64.5697C27.4345 64.5697 0 79.3779 0 79.3779C0 79.3779 0 118.696 0 118.696L37.9862 138.1L76.5 118.696L76.5 79.3779L48.6976 64.3166L48.6976 60.9953L48.6976 42L27.4345 42C27.4345 42 27.4345 54.7402 27.4345 60.9953Z" id="Vector-4" fill="#D3D3D3" fill-rule="evenodd" stroke="none" />
      <path d="M27.4345 60.3068L27.4345 63.9999C27.4345 63.9999 1.14441e-05 78.9103 1.14441e-05 78.9103C1.14441e-05 78.9103 1.14441e-05 119.534 1.14441e-05 119.534L37.9862 139.583L76.5 119.534L76.5 78.9103L48.5 63.9999L48.5 60.5683" id="Vector-5" fill="none" fill-rule="evenodd" stroke="#8F8D98" stroke-width="3" />
      <path d="M27.5 18.5826L27.5 64.8749" id="Vector-6" fill="none" fill-rule="evenodd" stroke="#8F8D98" stroke-width="3" stroke-linejoin="round" />
      <path d="M48.5 18.9897L48.5 64.6968L48.5 56.1465" id="Vector-7" fill="none" fill-rule="evenodd" stroke="#8F8D98" stroke-width="3" />
      <path d="M51 81.5826L61 88L38 99L15 88L26 81.5826L38 89L51 81.5826Z" id="Vector-8" fill="#FFFFFF" fill-rule="evenodd" stroke="none" />
      <path d="M38 124C38 124 61 111 61 111C61 111 61 88 61 88L38 99L38 124Z" id="Vector-9" fill="#6442D4" fill-rule="evenodd" stroke="none" />
      <path d="M38 124C38 124 15 111 15 111C15 111 15 88 15 88L38 99L38 124Z" id="Vector-10" fill="#4916CD" fill-rule="evenodd" stroke="none" />
      <path d="M42 118.257C42 118.257 56.22 110.22 56.22 110.22C56.22 110.22 56.22 96 56.22 96L42 102.801L42 118.257Z" id="Vector-11" fill="#4916CD" fill-rule="evenodd" stroke="#4916CD" stroke-width="1" />
      <path d="M18.999 0L57.001 0Q57.1237 0 57.2463 0.00602151Q57.3689 0.012043 57.491 0.0240715Q57.6131 0.0361001 57.7345 0.0541066Q57.8559 0.0721132 57.9763 0.0960544Q58.0966 0.119996 58.2157 0.149814Q58.3347 0.179632 58.4521 0.215255Q58.5696 0.250879 58.6851 0.292221Q58.8006 0.333564 58.914 0.380526Q59.0274 0.427489 59.1383 0.479957Q59.2493 0.532426 59.3575 0.590276Q59.4657 0.648125 59.571 0.711215Q59.6763 0.774305 59.7783 0.842483Q59.8803 0.910662 59.9789 0.983765Q60.0775 1.05687 60.1723 1.13472Q60.2672 1.21257 60.3581 1.29499Q60.449 1.3774 60.5358 1.46417Q60.6226 1.55095 60.705 1.64188Q60.7874 1.73281 60.8653 1.82767Q60.9431 1.92253 61.0162 2.0211Q61.0893 2.11967 61.1575 2.2217Q61.2257 2.32374 61.2888 2.429Q61.3519 2.53426 61.4097 2.64249Q61.4676 2.75072 61.52 2.86165Q61.5725 2.97259 61.6195 3.08597Q61.6664 3.19934 61.7078 3.31489Q61.7491 3.43043 61.7847 3.54787Q61.8204 3.6653 61.8502 3.78434Q61.88 3.90338 61.9039 4.02374Q61.9279 4.1441 61.9459 4.26549Q61.9639 4.38688 61.9759 4.50901Q61.988 4.63114 61.994 4.75371Q62 4.87628 62 4.999L62 14.001Q62 14.1237 61.994 14.2463Q61.988 14.3689 61.9759 14.491Q61.9639 14.6131 61.9459 14.7345Q61.9279 14.8559 61.9039 14.9763Q61.88 15.0966 61.8502 15.2157Q61.8204 15.3347 61.7847 15.4521Q61.7491 15.5696 61.7078 15.6851Q61.6664 15.8007 61.6195 15.914Q61.5725 16.0274 61.52 16.1383Q61.4676 16.2493 61.4097 16.3575Q61.3519 16.4657 61.2888 16.571Q61.2257 16.6763 61.1575 16.7783Q61.0893 16.8803 61.0162 16.9789Q60.9431 17.0775 60.8653 17.1723Q60.7874 17.2672 60.705 17.3581Q60.6226 17.449 60.5358 17.5358Q60.449 17.6226 60.3581 17.705Q60.2672 17.7874 60.1723 17.8653Q60.0775 17.9431 59.9789 18.0162Q59.8803 18.0893 59.7783 18.1575Q59.6763 18.2257 59.571 18.2888Q59.4657 18.3519 59.3575 18.4097Q59.2493 18.4676 59.1383 18.52Q59.0274 18.5725 58.914 18.6195Q58.8006 18.6664 58.6851 18.7078Q58.5696 18.7491 58.4521 18.7847Q58.3347 18.8204 58.2157 18.8502Q58.0966 18.88 57.9762 18.9039Q57.8559 18.9279 57.7345 18.9459Q57.6131 18.9639 57.491 18.9759Q57.3689 18.988 57.2463 18.994Q57.1237 19 57.001 19L18.999 19Q18.8763 19 18.7537 18.994Q18.6311 18.988 18.509 18.9759Q18.3869 18.9639 18.2655 18.9459Q18.1441 18.9279 18.0237 18.9039Q17.9034 18.88 17.7843 18.8502Q17.6653 18.8204 17.5479 18.7847Q17.4304 18.7491 17.3149 18.7078Q17.1993 18.6664 17.086 18.6195Q16.9726 18.5725 16.8617 18.52Q16.7507 18.4676 16.6425 18.4097Q16.5343 18.3519 16.429 18.2888Q16.3237 18.2257 16.2217 18.1575Q16.1197 18.0893 16.0211 18.0162Q15.9225 17.9431 15.8277 17.8653Q15.7328 17.7874 15.6419 17.705Q15.5509 17.6226 15.4642 17.5358Q15.3774 17.449 15.295 17.3581Q15.2126 17.2672 15.1347 17.1723Q15.0569 17.0775 14.9838 16.9789Q14.9107 16.8803 14.8425 16.7783Q14.7743 16.6763 14.7112 16.571Q14.6481 16.4657 14.5903 16.3575Q14.5324 16.2493 14.48 16.1383Q14.4275 16.0274 14.3805 15.914Q14.3336 15.8007 14.2922 15.6851Q14.2509 15.5696 14.2153 15.4521Q14.1796 15.3347 14.1498 15.2157Q14.12 15.0966 14.0961 14.9763Q14.0721 14.8559 14.0541 14.7345Q14.0361 14.6131 14.0241 14.491Q14.012 14.3689 14.006 14.2463Q14 14.1237 14 14.001L14 4.999Q14 4.87628 14.006 4.75371Q14.012 4.63114 14.0241 4.50901Q14.0361 4.38688 14.0541 4.26549Q14.0721 4.1441 14.0961 4.02374Q14.12 3.90338 14.1498 3.78434Q14.1796 3.6653 14.2153 3.54787Q14.2509 3.43043 14.2922 3.31489Q14.3336 3.19934 14.3805 3.08597Q14.4275 2.97259 14.48 2.86165Q14.5324 2.75072 14.5903 2.64249Q14.6481 2.53426 14.7112 2.429Q14.7743 2.32374 14.8425 2.2217Q14.9107 2.11967 14.9838 2.0211Q15.0569 1.92253 15.1347 1.82767Q15.2126 1.73281 15.295 1.64188Q15.3774 1.55095 15.4642 1.46417Q15.5509 1.3774 15.6419 1.29499Q15.7328 1.21257 15.8277 1.13472Q15.9225 1.05687 16.0211 0.983765Q16.1197 0.910662 16.2217 0.842483Q16.3237 0.774305 16.429 0.711215Q16.5343 0.648125 16.6425 0.590276Q16.7507 0.532426 16.8617 0.479957Q16.9726 0.427489 17.086 0.380526Q17.1993 0.333564 17.3149 0.292221Q17.4304 0.250879 17.5479 0.215255Q17.6653 0.179632 17.7843 0.149814Q17.9034 0.119996 18.0237 0.0960544Q18.1441 0.0721132 18.2655 0.0541066Q18.3869 0.0361001 18.509 0.0240715Q18.6311 0.012043 18.7537 0.00602151Q18.8763 0 18.999 0Z" id="Rectangle-2" fill="#846CD4" fill-rule="evenodd" stroke="none" />
    </g>
    <g id="LLcheM" fill="#4916CD" transform="translate(92.5 24.79129)">
      <path d="M6.51705 18.0909L6.51705 71.9091L38.0511 71.9091L38.0511 66.1278L13.0341 66.1278L13.0341 18.0909L6.51705 18.0909ZM48.142 18.0909L48.142 71.9091L79.6761 71.9091L79.6761 66.1278L54.6591 66.1278L54.6591 18.0909L48.142 18.0909ZM136.438 71.9091L136.438 47.6278Q136.438 42.3459 139.446 39.4684Q142.455 36.5909 147.054 36.5909Q151.442 36.5909 153.926 39.2319Q156.409 41.8729 156.409 46.6818L156.409 71.9091L162.611 71.9091L162.611 46.2614Q162.611 38.483 158.827 34.7514Q155.043 31.0199 148.841 31.0199Q144.085 31.0199 141.233 32.8725Q138.382 34.7251 136.963 37.8523L136.438 37.8523L136.438 18.0909L130.236 18.0909L130.236 71.9091L136.438 71.9091ZM225.679 18.0909L217.901 18.0909L217.901 71.9091L223.997 71.9091L223.997 31.0199L224.523 31.0199L241.341 71.9091L247.227 71.9091L264.045 31.0199L264.571 31.0199L264.571 71.9091L270.668 71.9091L270.668 18.0909L262.889 18.0909L244.599 62.7642L243.969 62.7642L225.679 18.0909ZM105.324 72.75Q99.6477 72.75 95.5483 70.0696Q91.4489 67.3892 89.2415 62.6854Q87.0341 57.9815 87.0341 51.9375Q87.0341 45.7884 89.3072 41.0714Q91.5803 36.3544 95.6665 33.6871Q99.7528 31.0199 105.219 31.0199Q109.476 31.0199 112.892 32.5966Q116.308 34.1733 118.489 37.0114Q120.67 39.8494 121.196 43.6335L114.994 43.6335Q114.285 40.8743 111.854 38.7326Q109.423 36.5909 105.324 36.5909Q99.8842 36.5909 96.56 40.7298Q93.2358 44.8686 93.2358 51.7273Q93.2358 58.7436 96.5206 62.9613Q99.8054 67.179 105.324 67.179Q108.95 67.179 111.539 65.3132Q114.127 63.4474 114.994 60.1364L121.196 60.1364Q120.67 63.7102 118.608 66.5614Q116.545 69.4126 113.168 71.0813Q109.791 72.75 105.324 72.75ZM190.886 72.75Q185.053 72.75 180.835 70.1616Q176.617 67.5732 174.344 62.9087Q172.071 58.2443 172.071 52.0426Q172.071 45.8409 174.344 41.0977Q176.617 36.3544 180.703 33.6871Q184.79 31.0199 190.256 31.0199Q193.409 31.0199 196.484 32.071Q199.558 33.1222 202.081 35.4741Q204.604 37.826 206.102 41.6889Q207.599 45.5518 207.599 51.2017L207.599 53.8295L178.299 53.8295Q178.509 60.294 181.965 63.7365Q185.42 67.179 190.886 67.179Q194.539 67.179 197.167 65.6023Q199.795 64.0256 200.977 60.8722L206.969 62.554Q205.55 67.1264 201.293 69.9382Q197.036 72.75 190.886 72.75ZM178.299 48.4687L201.293 48.4687Q201.293 43.3445 198.297 39.9677Q195.301 36.5909 190.256 36.5909Q186.708 36.5909 184.107 38.2464Q181.505 39.902 180.007 42.6218Q178.509 45.3416 178.299 48.4687Z" />
    </g>
  </g>
</svg>